<svg width="600" height="600" viewBox="0 0 600 600" fill="none" xmlns="http://www.w3.org/2000/svg">
<path d="M275.903 359.42C275.903 363.291 275.896 367.161 275.906 371.031C275.91 372.724 275.942 374.416 275.973 376.108C276.003 377.789 276.121 379.472 276.067 381.15C275.964 384.405 275.712 387.656 275.632 390.912C275.594 392.437 275.839 393.968 275.908 395.499C275.946 396.329 275.875 397.164 275.871 397.996C275.844 404.901 276.015 411.814 275.73 418.707C275.536 423.4 275.129 428.058 275.914 432.731C276.069 433.651 275.981 434.629 275.887 435.568C275.734 437.103 274.177 438.361 272.359 438.446C268.539 438.623 264.718 438.773 260.898 438.922C259.474 438.977 258.002 437.898 258.003 436.468C258.005 434.067 258.32 431.666 258.441 429.262C258.518 427.731 258.485 426.195 258.496 424.66C258.53 419.503 258.613 414.346 258.576 409.189C258.552 405.752 258.347 402.317 258.24 398.881C258.155 396.176 258.016 393.469 258.047 390.765C258.085 387.451 258.332 384.139 258.384 380.825C258.468 375.561 258.492 370.296 258.487 365.031C258.485 362.144 258.05 359.218 258.394 356.381C258.756 353.393 257.989 350.372 259.12 347.372C259.706 345.817 259.304 343.848 259.186 342.077C258.93 338.202 258.562 334.335 258.259 330.463C258.184 329.51 257.706 329.09 256.775 328.911C254.476 328.47 253.221 326.988 253.299 324.551C253.399 321.421 253.657 318.293 253.927 315.171C254.036 313.9 255.679 312.727 257.097 312.706C260.829 312.649 264.562 312.511 268.293 312.539C271.645 312.565 274.995 312.8 278.348 312.872C279.331 312.893 280.319 312.662 281.307 312.569C281.695 312.532 282.098 312.499 282.478 312.562C287.663 313.413 292.88 312.962 298.083 312.935C303.323 312.908 308.562 312.744 313.801 312.61C317.211 312.523 320.62 312.271 324.029 312.298C327.421 312.324 330.812 312.725 334.204 312.741C337.516 312.755 340.829 312.405 344.143 312.371C347.696 312.334 351.251 312.504 354.805 312.529C355.996 312.537 357.193 312.263 358.378 312.315C361.547 312.454 364.711 312.831 367.879 312.871C371.835 312.921 375.818 312.421 379.743 312.733C383.2 313.007 386.608 312.783 390.039 312.797C392.285 312.807 394.526 313.345 396.773 313.372C398.672 313.396 400.574 313.005 402.478 312.838C403.506 312.748 404.541 312.717 405.573 312.705C410.632 312.645 415.692 312.529 420.75 312.573C425.596 312.616 430.44 312.823 435.284 312.979C436.073 313.004 436.869 313.086 437.644 313.235C439.792 313.65 440.85 314.671 440.935 316.759C441.058 319.805 441.707 322.827 442.013 325.871C442.078 326.512 441.827 327.424 441.377 327.832C440.041 329.044 439.588 330.473 439.658 332.202C439.808 335.879 439.967 339.557 440 343.236C440.014 344.717 439.667 346.197 439.557 347.683C439.238 351.991 438.968 356.302 438.656 360.61C438.391 364.268 437.997 367.894 438.413 371.599C438.674 373.915 438.042 376.316 438.033 378.68C438.021 381.577 438.293 384.474 438.35 387.372C438.451 392.468 438.542 397.565 438.523 402.661C438.508 406.481 438.276 410.299 438.208 414.119C438.155 417.184 438.224 420.252 438.2 423.318C438.171 426.932 437.423 430.534 438.19 434.17C438.405 435.188 438.085 436.321 437.994 437.401C437.945 437.988 437.754 438.584 437.817 439.155C438.007 440.873 437.706 441.441 435.974 441.617C434.152 441.802 432.308 441.775 430.474 441.842C429.102 441.892 427.73 441.987 426.358 441.985C424.576 441.984 422.768 442.082 421.022 441.81C419.569 441.583 419.201 440.201 419.187 438.901C419.168 437.22 419.272 435.536 419.366 433.856C419.516 431.192 419.78 428.533 419.85 425.867C419.929 422.847 419.813 419.823 419.845 416.801C419.888 412.75 420.061 408.7 420.041 404.651C420.031 402.575 419.6 400.501 419.579 398.425C419.545 395.111 419.723 391.795 419.755 388.48C419.773 386.651 419.65 384.821 419.634 382.99C419.601 379.065 419.561 375.138 419.59 371.212C419.622 366.868 419.765 362.524 419.787 358.179C419.799 355.787 419.36 355.462 416.966 355.481C413.444 355.51 409.922 355.454 406.4 355.514C403.538 355.562 400.678 355.789 397.816 355.807C396.854 355.814 395.888 355.237 394.926 355.243C390.704 355.269 386.483 355.507 382.262 355.483C378.738 355.463 375.216 355.109 371.69 355.052C369.502 355.017 367.309 355.359 365.118 355.356C361.257 355.35 357.396 355.186 353.534 355.141C352.597 355.13 351.656 355.413 350.717 355.405C348.59 355.388 346.465 355.245 344.337 355.21C342.216 355.176 341.859 355.295 341.726 357.322C341.485 360.97 341.575 364.638 341.466 368.296C341.403 370.422 341.199 372.543 341.1 374.668C340.973 377.381 340.847 380.095 340.796 382.809C340.725 386.571 340.628 390.336 340.716 394.096C340.86 400.201 341.218 406.302 341.339 412.408C341.399 415.422 340.953 418.449 341.058 421.459C341.186 425.122 340.77 428.722 340.432 432.345C340.329 433.456 340.623 434.61 340.779 435.738C341.006 437.372 340.546 437.905 338.868 437.945C335.793 438.02 332.718 438.197 329.645 438.168C327.927 438.151 326.206 437.847 324.497 437.598C323.206 437.41 322.893 436.347 322.797 435.28C322.432 431.22 321.992 427.159 321.84 423.089C321.754 420.772 322.245 418.439 322.347 416.108C322.457 413.593 322.421 411.072 322.441 408.553C322.463 405.883 322.525 403.211 322.483 400.542C322.434 397.375 322.245 394.21 322.209 391.043C322.181 388.573 322.322 386.102 322.337 383.631C322.35 381.649 322.276 379.667 322.259 377.685C322.236 375.058 322.352 372.423 322.188 369.805C321.985 366.561 322.93 363.31 321.991 360.061C321.744 359.207 322.022 358.183 322.139 357.247C322.295 355.994 321.567 355.381 320.534 355.378C317.965 355.369 315.396 355.558 312.826 355.621C312.007 355.641 311.18 355.546 310.363 355.447C305.237 354.827 300.1 354.9 294.962 355.227C292.439 355.387 289.922 355.705 287.398 355.761C285.789 355.797 284.175 355.422 282.558 355.345C280.581 355.252 278.591 355.182 276.625 355.334C276.233 355.364 275.766 356.406 275.617 357.047C275.441 357.8 275.575 358.625 275.575 359.419C275.685 359.419 275.794 359.42 275.903 359.42ZM336.585 329.266C336.582 329.309 336.58 329.352 336.577 329.394C335.729 329.394 334.853 329.265 334.042 329.437C333.446 329.564 332.646 329.972 332.452 330.459C332.159 331.198 332.23 332.122 332.294 332.955C332.613 337.147 332.984 341.335 333.329 345.525C333.425 346.7 333.66 347.896 333.538 349.051C333.261 351.682 333.996 352.665 336.64 352.793C337.088 352.814 337.539 352.782 337.989 352.775C342.986 352.696 347.984 352.568 352.981 352.555C356.057 352.546 359.135 352.798 362.211 352.78C367.149 352.753 372.086 352.57 377.024 352.509C382.263 352.444 387.504 352.499 392.743 352.402C396.798 352.327 400.849 352.065 404.904 351.954C407.392 351.886 409.887 351.88 412.374 351.967C415.793 352.085 419.206 352.393 422.625 352.481C425.985 352.568 429.35 352.492 432.712 352.469C435.379 352.452 435.826 352.008 435.953 349.367C435.965 349.122 436.033 348.879 436.076 348.635C436.329 347.229 436.732 345.83 436.799 344.416C436.905 342.19 436.753 339.953 436.766 337.721C436.78 335.307 436.932 332.891 436.885 330.479C436.853 328.843 436.034 328.354 434.347 328.449C432.577 328.549 430.798 328.472 429.025 328.515C428.283 328.532 427.542 328.649 426.802 328.737C425.674 328.87 424.551 329.097 423.42 329.136C421.93 329.187 420.434 329.038 418.943 329.075C416.572 329.134 414.183 329.514 411.839 329.317C409.374 329.109 406.968 328.973 404.52 329.408C403.315 329.622 402.06 329.608 400.828 329.608C399.194 329.608 397.561 329.506 395.927 329.477C394.042 329.444 392.152 329.515 390.271 329.408C387.907 329.274 385.552 328.852 383.191 328.83C379.233 328.794 375.273 329.01 371.313 329.052C369.2 329.075 367.085 328.926 364.971 328.914C363.49 328.906 362.008 329.035 360.527 329.04C357.703 329.05 354.878 328.96 352.056 329.018C349.555 329.069 347.057 329.256 344.558 329.405C344.119 329.431 343.682 329.651 343.25 329.633C341.027 329.537 338.807 329.393 336.585 329.266ZM273.012 328.906C273.012 328.89 273.012 328.875 273.012 328.859C270.025 328.859 267.037 328.862 264.049 328.858C262.509 328.856 262.084 329.405 262.068 330.969C262.049 332.903 261.871 334.836 261.751 336.769C261.62 338.891 261.378 341.013 261.368 343.135C261.357 345.549 261.541 347.964 261.656 350.377C261.705 351.408 262.058 352.339 263.219 352.417C265.077 352.541 266.946 352.499 268.81 352.541C271.642 352.606 274.478 352.81 277.305 352.727C282.61 352.572 287.908 352.161 293.213 352.05C295.365 352.004 297.527 352.642 299.686 352.653C302.605 352.669 305.527 352.24 308.446 352.258C312.047 352.28 315.644 352.621 319.246 352.717C321.904 352.789 324.569 352.734 327.227 352.653C329.361 352.588 329.884 351.856 329.876 349.714C329.861 345.991 329.98 342.266 329.999 338.542C330.012 335.934 329.988 333.324 329.88 330.718C329.864 330.338 329.308 329.682 328.966 329.658C325.058 329.383 321.146 329.127 317.231 329.028C313.917 328.945 310.598 329.104 307.282 329.101C304.694 329.099 302.106 329.051 299.521 328.951C297.112 328.858 294.706 328.674 292.299 328.522C290.92 328.434 289.535 328.208 288.163 328.271C286.835 328.331 285.525 328.844 284.2 328.875C280.472 328.963 276.742 328.906 273.012 328.906ZM404.551 324.886C404.552 324.99 404.552 325.094 404.552 325.198C406.223 325.198 407.895 325.202 409.567 325.198C414.037 325.187 418.507 325.174 422.977 325.157C423.814 325.154 424.73 324.897 425.474 325.151C429.364 326.48 433.363 325.142 437.294 325.75C439.118 326.032 439.859 324.937 439.589 323.033C439.319 321.132 439.086 319.199 438.522 317.378C438.31 316.693 437.227 315.846 436.519 315.825C434.008 315.749 431.487 316.001 428.97 316.123C425.609 316.285 422.247 316.569 418.886 316.567C414.365 316.566 409.844 316.378 405.326 316.195C403.606 316.124 401.894 315.686 400.179 315.69C396.276 315.699 392.373 315.941 388.469 315.973C383.15 316.016 377.829 315.881 372.511 315.959C369.206 316.007 365.906 316.31 362.603 316.494C361.71 316.544 360.814 316.636 359.923 316.612C356.264 316.509 352.606 316.328 348.947 316.255C345.378 316.183 341.807 316.147 338.241 316.253C337.668 316.27 336.642 317.108 336.642 317.566C336.642 319.498 336.869 321.444 337.203 323.352C337.29 323.847 338.036 324.554 338.53 324.597C342.266 324.927 346.021 324.706 349.775 325.192C352.384 325.53 355.091 325.021 357.753 325.045C361.99 325.085 366.225 325.303 370.462 325.351C373.46 325.384 376.479 325.016 379.451 325.27C383.478 325.615 387.448 325.595 391.429 324.937C392.108 324.824 392.817 324.888 393.513 324.887C397.192 324.884 400.872 324.886 404.551 324.886ZM320.323 325.074C320.324 325.024 320.325 324.974 320.326 324.923C321.658 324.83 322.988 324.684 324.321 324.654C326.751 324.599 329.185 324.664 331.612 324.555C332.073 324.535 332.817 324.01 332.903 323.605C333.294 321.763 333.611 319.889 333.728 318.012C333.821 316.545 333.082 315.896 331.631 315.929C330 315.965 328.373 316.158 326.743 316.219C323.933 316.322 321.123 316.423 318.312 316.438C315.351 316.453 312.39 316.349 309.429 316.332C307.744 316.322 306.051 316.492 304.374 316.387C301.558 316.211 298.756 315.745 295.94 315.654C293.296 315.569 290.641 315.808 287.991 315.912C285.084 316.026 282.178 316.206 279.271 316.252C274.514 316.329 269.755 316.313 264.998 316.35C262.918 316.367 260.833 316.338 258.76 316.482C257.351 316.579 256.75 317.517 256.969 318.976C257.203 320.533 257.619 322.071 257.736 323.634C257.832 324.908 258.504 325.258 259.564 325.293C262.444 325.387 265.323 325.505 268.203 325.537C273.272 325.593 278.342 325.563 283.411 325.633C284.938 325.655 286.465 326.026 287.987 325.998C291.59 325.933 295.19 325.684 298.793 325.585C305.969 325.388 313.146 325.241 320.323 325.074ZM330.747 373.842C330.343 368.17 329.837 363.111 330.725 358.037C330.858 357.277 330.67 355.857 330.284 355.72C329.003 355.265 327.531 355.016 326.201 355.195C325.655 355.268 324.939 356.617 324.894 357.418C324.735 360.288 324.817 363.171 324.834 366.049C324.848 368.36 324.948 370.672 324.916 372.981C324.901 373.998 324.356 375.076 324.561 376.015C325.598 380.777 325.06 385.576 325.09 390.359C325.114 394.277 324.964 398.197 324.963 402.116C324.962 404.975 325.137 407.834 325.124 410.693C325.112 413.208 324.544 415.788 324.938 418.224C325.759 423.313 325.135 428.334 324.849 433.375C324.785 434.488 324.75 435.28 325.98 435.507C328 435.88 330.234 434.994 330.362 433.824C330.373 433.725 330.371 433.625 330.372 433.525C330.393 432.232 330.397 430.939 330.437 429.648C330.526 426.782 330.672 423.918 330.72 421.052C330.767 418.274 330.737 415.495 330.711 412.717C330.683 409.697 330.558 406.676 330.593 403.658C330.621 401.247 330.864 398.839 330.929 396.427C330.953 395.547 330.65 394.661 330.649 393.777C330.646 390.655 330.727 387.534 330.743 384.412C330.762 380.686 330.747 376.961 330.747 373.842ZM260.9 429.23C260.955 429.237 261.01 429.245 261.065 429.253C261.16 430.241 261.102 431.279 261.401 432.201C261.603 432.823 262.342 433.752 262.783 433.721C263.975 433.638 265.699 434.467 266.196 432.525C266.446 431.546 266.47 430.495 266.494 429.475C266.56 426.678 266.622 423.879 266.59 421.082C266.566 419.055 266.366 417.03 266.294 415.002C266.264 414.171 266.421 413.334 266.395 412.503C266.299 409.438 266.078 406.375 266.067 403.31C266.058 400.955 266.358 398.601 266.404 396.244C266.469 392.868 266.486 389.488 266.416 386.112C266.348 382.854 266.013 379.599 266.033 376.344C266.056 372.728 266.445 369.115 266.49 365.499C266.521 362.986 266.113 360.469 266.14 357.956C266.163 355.826 266.188 355.657 264.121 355.318C263.826 355.27 263.528 355.24 263.233 355.19C262.157 355.005 261.457 355.338 261.408 356.532C261.359 357.711 261.339 358.891 261.295 360.069C261.165 363.559 260.934 367.049 260.928 370.54C260.924 373.009 261.344 375.478 261.356 377.949C261.38 382.463 261.219 386.979 261.179 391.494C261.133 396.631 262.04 401.736 261.254 406.916C260.76 410.174 260.941 413.542 260.932 416.861C260.929 418.029 261.434 419.202 261.403 420.365C261.327 423.322 261.079 426.275 260.9 429.23ZM435.149 360.583C435.004 359.465 434.917 358.026 434.611 356.634C434.247 354.978 432.725 355.387 431.651 355.405C431.226 355.411 430.509 356.373 430.457 356.948C430.305 358.66 430.377 360.397 430.433 362.123C430.564 366.172 430.803 370.219 430.866 374.269C430.897 376.234 430.628 378.203 430.501 380.171C430.37 382.186 430.118 384.203 430.151 386.215C430.193 388.74 430.646 391.263 430.609 393.782C430.541 398.474 430.206 403.162 430.07 407.853C430.025 409.423 430.319 411.001 430.335 412.576C430.383 417.216 430.4 421.856 430.369 426.496C430.347 429.733 430.341 432.979 430.1 436.205C429.978 437.839 430.965 438.609 431.985 438.792C433.426 439.049 434.802 438.271 435.129 436.939C435.345 436.059 435.271 435.107 435.326 434.188C435.447 432.204 435.718 430.216 435.656 428.238C435.528 424.195 435.133 420.16 435.012 416.117C434.884 411.787 434.954 407.451 434.918 403.117C434.902 401.043 434.807 398.968 434.811 396.893C434.816 393.982 434.856 391.069 434.925 388.159C434.985 385.657 435.158 383.157 435.181 380.656C435.198 378.8 435.001 376.943 434.996 375.086C434.992 372.929 435.119 370.773 435.143 368.616C435.17 366.045 435.149 363.473 435.149 360.583ZM333.101 431.94C333.188 431.939 333.274 431.938 333.361 431.937C333.329 432.621 333.171 433.329 333.294 433.984C333.494 435.049 335.211 435.766 336.923 435.629C338.225 435.525 338.569 434.629 338.548 433.545C338.508 431.477 338.412 429.41 338.309 427.345C338.211 425.362 338.055 423.381 337.958 421.398C337.874 419.677 337.774 417.953 337.793 416.231C337.828 413.208 337.949 410.185 338.035 407.163C338.046 406.777 338.092 406.392 338.078 406.008C338.002 403.849 337.798 401.689 337.85 399.534C337.964 394.783 338.283 390.037 338.357 385.286C338.389 383.223 337.941 381.157 337.861 379.086C337.782 377.029 337.931 374.964 337.909 372.903C337.88 370.14 337.734 367.378 337.733 364.615C337.732 362.346 337.843 360.076 337.955 357.808C338.051 355.861 337.411 355.174 335.441 355.247C335.245 355.254 335.051 355.327 334.854 355.335C333.181 355.405 332.827 355.952 333.011 357.537C333.276 359.835 333.48 362.153 333.496 364.464C333.522 368.464 333.378 372.465 333.315 376.466C333.255 380.227 333.17 383.989 333.163 387.751C333.155 391.584 333.599 395.426 332.896 399.244C332.853 399.481 332.936 399.739 332.951 399.988C333.148 403.254 333.431 406.519 333.497 409.789C333.526 411.197 332.933 412.613 332.92 414.028C332.889 417.518 333.048 421.009 333.095 424.501C333.128 426.98 333.101 429.46 333.101 431.94ZM423.193 405.524C423.077 405.524 422.962 405.524 422.846 405.524C422.846 408.719 422.82 411.914 422.853 415.109C422.893 418.914 422.985 422.718 423.053 426.522C423.09 428.61 423.059 430.701 423.181 432.784C423.278 434.463 423.501 436.141 423.774 437.802C424.015 439.266 425.166 439.139 426.236 438.979C427.313 438.817 427.334 438.07 427.243 437.179C427.119 435.948 427.04 434.703 427.079 433.469C427.199 429.618 427.495 425.77 427.518 421.92C427.548 416.934 427.408 411.947 427.289 406.961C427.172 402.126 426.955 397.293 426.859 392.457C426.834 391.193 427.229 389.921 427.2 388.658C427.132 385.666 426.852 382.68 426.794 379.689C426.734 376.57 426.824 373.448 426.868 370.328C426.889 368.937 426.967 367.548 427.007 366.157C427.081 363.535 427.22 360.911 427.175 358.291C427.159 357.386 426.941 356.154 426.337 355.68C425.694 355.175 424.469 355.252 423.531 355.36C423.169 355.401 422.64 356.221 422.628 356.698C422.578 358.77 422.471 360.881 422.786 362.916C423.646 368.474 423.045 374.047 423.15 379.608C423.313 388.243 423.193 396.885 423.193 405.524ZM268.675 430.564C268.759 431.281 268.678 431.8 268.889 432.133C269.246 432.694 269.772 433.513 270.257 433.534C270.868 433.561 271.595 432.985 272.108 432.497C272.41 432.208 272.5 431.586 272.504 431.113C272.531 427.558 272.575 424.001 272.492 420.447C272.393 416.19 272.099 411.937 272.028 407.68C271.968 404.105 272.126 400.527 272.153 396.95C272.176 393.94 272.191 390.927 272.122 387.918C272.095 386.74 271.669 385.563 271.699 384.393C271.779 381.28 272.068 378.172 272.163 375.059C272.288 370.984 272.331 366.907 272.36 362.83C272.374 360.922 272.309 359.011 272.21 357.105C272.151 355.964 271.534 355.189 270.319 355.23C268.984 355.276 268.953 356.342 268.946 357.309C268.911 362.052 268.817 366.796 268.899 371.536C268.994 376.963 269.797 382.355 268.873 387.826C268.406 390.587 268.94 393.515 268.996 396.369C269.063 399.834 269.148 403.301 269.144 406.767C269.141 410.09 269.058 413.413 268.966 416.735C268.918 418.472 268.716 420.206 268.688 421.942C268.64 424.904 268.675 427.867 268.675 430.564Z" fill="black"/>
<path d="M188.393 253.605C186.864 253.605 185.433 253.522 184.015 253.623C181.456 253.804 178.906 254.448 176.359 253.472C175.936 253.31 175.388 253.452 174.9 253.48C172.605 253.616 170.404 253.211 168.246 252.544C168.22 252.362 168.194 252.18 168.167 251.998C169.246 251.697 170.307 251.242 171.406 251.12C178.144 250.374 184.913 249.871 191.624 248.943C195.436 248.415 199.146 247.177 202.924 246.361C206.643 245.558 210.404 244.949 214.12 244.132C216.526 243.603 218.858 242.924 220.985 241.475C223.358 239.859 226.006 238.647 228.515 237.226C231.308 235.645 234.194 234.192 236.834 232.383C240.333 229.986 243.67 227.345 247.001 224.714C248.317 223.675 249.52 222.458 250.62 221.188C253.677 217.661 256.592 214.023 258.244 209.566C258.4 209.146 258.6 208.728 258.663 208.291C258.856 206.954 258.168 206.442 256.907 206.909C251.941 208.748 246.782 209.416 241.514 209.745C236.65 210.048 231.679 210.009 227.094 212.112C223.237 213.882 219.39 215.674 215.539 217.456C213.827 218.249 212.141 219.102 210.399 219.823C206.593 221.4 203.037 223.408 199.645 225.74C198.679 226.404 197.577 226.903 196.479 227.329C196.008 227.511 195.389 227.311 194.837 227.285C194.968 226.69 194.899 225.874 195.267 225.542C196.475 224.451 197.77 223.419 199.163 222.58C201.687 221.059 204.345 219.76 206.872 218.242C208.868 217.044 210.728 215.623 212.693 214.369C213.438 213.893 214.331 213.652 215.11 213.22C215.783 212.846 216.391 212.353 217.027 211.913C216.959 211.768 216.89 211.623 216.821 211.478C215.065 211.366 213.298 211.338 211.553 211.128C207.306 210.615 203.217 211.089 199.405 213.075C196.956 214.35 194.576 215.769 192.225 217.221C189.562 218.865 186.893 220.518 184.357 222.348C181.1 224.698 177.903 227.143 174.808 229.701C170.655 233.133 166.984 237.058 163.661 241.301C162.43 242.873 161.082 243.651 160.42 242.948C159.28 241.734 160.469 240.532 161.029 239.657C162.708 237.036 164.578 234.521 166.551 232.111C167.789 230.599 169.368 229.369 170.759 227.978C172.963 225.773 175.086 223.485 177.346 221.339C178.457 220.283 179.74 219.379 181.041 218.56C184.424 216.429 187.854 214.371 191.282 212.313C191.783 212.012 192.38 211.874 192.924 211.641C193.854 211.245 194.778 210.833 195.705 210.428C195.674 210.232 195.643 210.036 195.613 209.84C195.247 209.702 194.879 209.439 194.515 209.445C190.361 209.512 186.938 207.33 183.28 205.859C180.469 204.728 178.011 203.043 175.674 201.169C174.915 200.561 174.234 199.812 173.676 199.017C173.469 198.723 173.715 198.11 173.755 197.642C174.187 197.747 174.792 197.706 175.023 197.981C177.091 200.431 179.798 202.004 182.594 203.373C184.074 204.097 185.779 204.399 187.411 204.766C188.696 205.056 190.034 205.107 191.333 205.347C194.428 205.919 197.498 206.658 200.611 207.101C202.999 207.441 205.436 207.453 207.853 207.57C211.95 207.769 216.05 208.102 220.145 208.061C223.296 208.029 226.443 207.51 229.591 207.203C230.033 207.16 230.473 207.054 230.915 207.044C233.782 206.984 236.651 207.001 239.515 206.876C241.884 206.772 244.227 206.529 246.389 205.321C247.179 204.88 248.215 204.884 249.133 204.663C250.866 204.246 252.6 203.833 254.322 203.373C254.651 203.284 254.924 202.986 255.224 202.785C254.971 202.514 254.768 202.127 254.456 201.991C252.725 201.238 250.936 200.614 249.226 199.818C245.747 198.2 242.141 197.001 238.361 196.362C234.412 195.694 230.473 194.901 226.495 194.498C222.202 194.063 217.872 193.969 213.555 193.814C209.454 193.666 205.349 193.599 201.245 193.563C199.66 193.548 198.072 193.78 196.486 193.77C195.853 193.765 195.221 193.411 194.588 193.215C194.598 192.994 194.608 192.774 194.618 192.553C195.953 192.163 197.268 191.669 198.628 191.404C201.737 190.8 204.853 190.03 207.996 189.843C211.45 189.638 214.936 190.041 218.41 190.119C219.94 190.154 221.473 190.049 223.004 189.992C225.668 189.892 228.256 190.353 230.861 190.865C234.388 191.557 237.967 191.985 241.503 192.635C243.247 192.955 244.943 193.531 246.667 193.967C247.088 194.073 247.534 194.083 247.968 194.137C248.058 193.993 248.147 193.848 248.237 193.704C247.063 192.853 245.918 191.959 244.707 191.166C243.896 190.636 242.903 190.365 242.144 189.78C239.771 187.952 236.998 187.019 234.199 186.225C230.404 185.149 226.567 184.198 222.71 183.37C220.301 182.853 217.831 182.487 215.374 182.372C212.71 182.247 210.029 182.514 207.355 182.563C206.232 182.583 205.098 182.371 203.984 182.459C198.829 182.867 193.682 183.278 188.645 184.631C184.013 185.875 179.3 186.814 174.65 187.993C173.236 188.351 171.915 189.069 170.545 189.604C170.098 189.779 169.629 189.9 169.139 190.055C168.425 188.185 169.91 187.376 170.845 186.91C175.291 184.69 179.459 181.826 184.574 181.097C190.645 180.231 196.663 178.953 202.75 178.238C207.369 177.695 212.028 177.553 216.729 177.883C221.73 178.236 226.477 179.551 231.278 180.696C233.08 181.126 234.755 182.08 236.491 182.787C237.443 183.175 238.415 183.516 239.356 183.93C241.571 184.902 243.839 185.781 245.961 186.929C248.426 188.262 250.751 189.854 253.152 191.307C253.637 191.601 254.192 191.78 255.058 191.785C254.688 190.638 254.402 189.455 253.931 188.351C252.85 185.82 251.659 183.335 250.568 180.808C250.418 180.459 250.585 179.973 250.605 179.55C251.072 179.577 251.668 179.431 251.98 179.664C252.761 180.248 253.494 180.939 254.105 181.701C257.114 185.456 258.987 189.818 260.711 194.256C261.015 195.038 261.355 195.809 261.736 196.555C261.873 196.825 262.195 197.199 262.405 197.183C262.671 197.162 262.961 196.826 263.146 196.56C263.305 196.33 263.378 196.014 263.412 195.727C263.794 192.492 264.121 189.249 264.548 186.021C264.763 184.398 265.128 182.793 265.472 181.189C265.919 179.103 265.356 178.422 263.312 178.194C259.134 177.729 254.908 177.374 251.122 175.275C249.209 174.213 249.036 171.318 250.938 170.133C252.058 169.436 253.475 168.993 254.795 168.886C257.865 168.636 260.957 168.622 264.04 168.594C264.971 168.586 265.919 168.784 266.833 168.999C268.571 169.407 269.293 170.793 269.573 172.346C270.194 175.774 270.482 179.225 269.589 182.669C269.491 183.049 269.498 183.456 269.445 183.849C269.007 187.137 268.592 190.429 268.116 193.713C267.814 195.791 267.406 197.854 267.073 199.928C266.898 201.019 267.249 201.681 268.47 201.947C272.602 202.847 276.774 203.641 280.812 204.869C284.961 206.13 288.994 207.793 293.026 209.411C294.246 209.9 295.27 210.861 296.423 211.542C301.675 214.641 306.469 218.301 310.336 223.059C312.32 225.501 314.168 228.052 316.1 230.537C317.467 232.294 318.961 233.959 320.229 235.782C321.297 237.317 322.2 238.983 323.038 240.659C324.517 243.617 326.014 246.577 327.267 249.633C328.177 251.85 328.71 254.222 329.404 256.528C329.945 258.322 330.541 260.103 330.994 261.919C331.654 264.565 332.385 267.213 332.761 269.906C333.231 273.273 333.392 276.684 333.647 280.079C333.829 282.502 333.929 284.931 334.101 287.355C334.17 288.328 334.671 288.877 335.737 288.903C337.792 288.955 339.788 289.176 341.374 290.771C341.795 291.194 342.527 291.303 343.108 291.575C345.237 292.571 347.333 293.65 349.514 294.517C349.969 294.698 351.07 294.28 351.291 293.844C352.169 292.11 352.924 290.295 353.525 288.446C354.651 284.978 355.65 281.468 356.678 277.969C357.192 276.218 357.657 274.454 358.133 272.692C358.263 272.212 358.32 271.71 358.468 271.235C360.151 265.845 361.819 260.449 363.544 255.072C364.811 251.122 366.128 247.187 367.491 243.269C367.796 242.392 368.308 241.554 368.877 240.816C369.167 240.441 369.789 240.144 370.273 240.124C374.277 239.962 378.283 239.79 382.289 239.791C384.806 239.792 387.322 240.108 389.841 240.243C392.251 240.372 394.663 240.508 397.075 240.528C398.559 240.54 400.049 240.212 401.529 240.264C404.612 240.372 407.695 240.587 410.77 240.842C414.454 241.146 418.132 241.522 421.808 241.911C422.267 241.959 422.698 242.273 423.143 242.464C423.129 242.662 423.116 242.86 423.102 243.058C421.548 243.322 420.001 243.75 418.439 243.815C415.178 243.951 411.91 243.924 408.645 243.91C403.794 243.889 398.944 243.833 394.093 243.771C391.02 243.732 387.947 243.609 384.873 243.615C383.35 243.618 381.824 243.797 380.304 243.953C379.181 244.068 378.628 244.775 378.308 245.854C377.125 249.85 375.978 253.863 374.607 257.796C372.737 263.163 370.703 268.473 368.682 273.786C367.539 276.79 366.241 279.736 365.086 282.737C363.275 287.444 361.506 292.167 359.76 296.898C359.08 298.74 359.431 299.35 361.369 299.364C364.042 299.384 366.716 299.162 369.391 299.098C370.836 299.063 372.283 299.131 373.728 299.169C377.31 299.264 380.893 299.328 384.472 299.484C386.688 299.581 388.901 299.998 391.11 299.963C395.658 299.892 400.201 299.602 404.748 299.431C405.841 299.39 406.942 299.417 408.033 299.495C409.076 299.57 409.817 299.199 410.099 298.198C410.644 296.264 411.072 294.297 411.634 292.368C412.37 289.845 413.146 287.331 413.982 284.839C414.941 281.98 415.938 279.132 417.01 276.313C417.568 274.847 418.478 273.505 418.952 272.019C419.551 270.144 419.817 268.166 420.316 266.255C421.095 263.274 421.961 260.315 422.765 257.34C423.159 255.879 423.445 254.387 423.872 252.937C424.471 250.897 425.156 248.882 425.805 246.856C426.181 245.68 426.521 244.49 426.96 243.338C427.072 243.044 427.496 242.868 427.777 242.638C427.968 242.953 428.335 243.278 428.318 243.581C428.259 244.613 428.12 245.649 427.911 246.663C427.188 250.164 426.429 253.659 425.67 257.153C424.57 262.216 423.522 267.292 422.318 272.332C421.874 274.19 421.036 275.953 420.405 277.769C419.759 279.628 419.08 281.48 418.537 283.369C417.784 285.991 417.145 288.645 416.456 291.284C415.706 294.159 414.854 297.012 414.247 299.916C413.969 301.242 414.153 302.668 414.165 304.049C414.188 306.467 414.403 308.897 414.233 311.301C414.058 313.784 412.65 314.823 410.128 314.65C407.276 314.453 404.43 314.173 401.582 313.929C397.218 313.555 392.875 313.673 388.528 314.257C387.38 314.411 386.164 313.977 384.985 314.005C382.374 314.068 379.767 314.325 377.157 314.366C374.681 314.404 372.201 314.183 369.726 314.229C366.88 314.282 364.038 314.591 361.193 314.628C357.458 314.675 353.722 314.525 349.987 314.534C346.671 314.542 343.354 314.735 340.04 314.688C337.324 314.65 334.612 314.245 331.897 314.24C326.978 314.231 322.06 314.468 317.141 314.468C313.903 314.468 310.665 314.222 307.426 314.111C306.489 314.079 306.133 313.548 306.318 312.752C307.089 309.427 307.829 306.088 308.803 302.821C309.028 302.064 310.028 301.293 310.842 301.001C313.201 300.154 315.646 299.852 318.201 300.179C320.005 300.41 321.866 300.176 323.701 300.188C326.362 300.205 329.024 300.285 331.685 300.28C332.759 300.279 333.834 300.124 334.925 300.038C334.045 295.285 330.37 290.407 324.55 292.487C322.506 293.218 320.379 293.754 318.407 294.64C315.804 295.811 313.208 297.07 310.816 298.61C308.881 299.856 307.284 301.615 305.478 303.073C303.548 304.632 301.494 306.039 299.6 307.639C298.476 308.589 297.591 309.818 296.533 310.854C295.898 311.477 295.136 311.971 294.431 312.523C294.289 312.429 294.147 312.335 294.005 312.241C294.245 311.279 294.232 310.135 294.769 309.386C298.051 304.804 301.219 300.045 305.932 296.79C308.562 294.975 311.5 293.543 314.434 292.245C317.778 290.765 321.249 289.558 324.715 288.376C325.957 287.952 327.337 287.876 328.665 287.778C329.802 287.695 330.334 287.253 330.173 286.09C330.131 285.795 330.053 285.483 330.107 285.201C330.927 280.93 330.215 276.724 329.588 272.515C329.239 270.167 328.998 267.794 328.483 265.482C327.808 262.442 327.034 259.411 326.077 256.45C324.954 252.975 323.653 249.552 322.293 246.161C321.823 244.99 320.93 243.993 320.254 242.902C319.321 241.396 318.378 239.894 317.497 238.356C316.541 236.687 315.681 234.962 314.718 233.297C314.38 232.714 313.903 232.194 313.418 231.717C308.502 226.885 303.822 221.769 298.553 217.357C295.346 214.671 291.286 212.956 287.495 211.03C284.696 209.609 281.773 208.37 278.795 207.382C275.693 206.353 272.405 206.18 269.145 205.83C266.235 205.519 264.605 206.316 263.766 209.064C263.337 210.47 262.667 211.801 262.17 213.188C260.929 216.647 258.481 219.326 256.192 222.039C254.385 224.181 252.098 225.933 249.948 227.769C246.676 230.565 243.469 233.466 239.984 235.975C237.389 237.844 234.407 239.178 231.581 240.72C229.36 241.933 227.119 243.111 224.875 244.28C224.36 244.549 223.793 244.717 223.25 244.929C221.365 245.663 219.516 246.517 217.586 247.101C214.467 248.046 211.291 248.802 208.146 249.662C207.287 249.897 206.465 250.265 205.605 250.49C204.9 250.674 204.167 250.77 203.441 250.844C201.76 251.016 200.535 252.094 200.107 253.794C199.244 257.224 199.735 260.709 199.868 264.145C200.026 268.227 200.001 272.256 199.507 276.319C199.162 279.153 199.256 282.046 199.247 284.912C199.232 289.071 199.359 293.231 199.314 297.389C199.281 300.392 199.044 303.393 198.938 306.397C198.871 308.306 198.539 310.29 198.929 312.112C199.535 314.935 200.427 317.752 201.614 320.384C203.246 324 205.07 327.565 207.183 330.917C208.947 333.716 211.215 336.203 213.32 338.779C214.547 340.281 215.971 341.624 217.168 343.147C219.687 346.35 222.697 348.97 226.105 351.18C228.227 352.556 230.36 353.936 232.342 355.5C234.265 357.018 236.502 357.025 238.702 357.165C242.345 357.395 246.001 357.569 249.65 357.553C251.963 357.543 254.275 357.156 256.586 356.917C257.73 356.798 258.439 357.566 258.405 358.415C258.367 359.353 257.508 359.742 256.404 359.689C252.12 359.482 247.829 359.273 243.542 359.297C238.956 359.323 234.372 359.694 229.785 359.757C226.662 359.8 223.536 359.528 220.411 359.481C216.699 359.424 212.987 359.45 209.275 359.453C207.451 359.454 205.627 359.488 203.803 359.499C202.284 359.509 200.764 359.523 199.244 359.508C197.83 359.495 196.873 358.599 196.845 357.193C196.747 352.238 196.595 347.282 196.637 342.328C196.657 339.913 197.112 337.505 197.263 335.087C197.33 334.015 197.006 332.918 197.074 331.846C197.336 327.732 196.847 323.649 196.705 319.552C196.598 316.491 196.742 313.422 196.712 310.357C196.684 307.564 196.508 304.772 196.516 301.979C196.527 298.436 196.769 294.891 196.702 291.35C196.642 288.139 196.26 284.935 196.096 281.724C195.952 278.91 195.928 276.089 195.825 273.273C195.652 268.533 195.488 263.792 195.227 259.057C195.201 258.585 194.59 257.839 194.149 257.755C193.011 257.537 191.808 257.529 190.649 257.638C190.32 257.67 189.81 258.387 189.801 258.798C189.741 261.62 189.826 264.444 189.798 267.267C189.77 270.236 189.596 273.205 189.617 276.172C189.64 279.506 189.971 282.843 189.875 286.17C189.745 290.675 189.308 295.171 189.067 299.675C189.001 300.898 189.208 302.133 189.217 303.364C189.245 307.285 189.236 311.206 189.247 315.127C189.254 317.881 188.997 320.671 189.344 323.382C189.881 327.595 188.824 331.858 190.032 336.058C190.434 337.456 189.845 339.11 189.945 340.632C190.067 342.493 190.556 344.331 190.67 346.192C190.816 348.57 190.747 350.961 190.767 353.347C190.773 354.034 190.631 354.758 190.795 355.404C191.33 357.509 191.404 359.539 190.903 361.706C190.61 362.971 191.213 364.419 191.258 365.79C191.437 371.154 191.56 376.521 191.692 381.887C191.752 384.32 191.827 386.753 191.824 389.186C191.814 395.203 191.757 401.219 191.732 407.236C191.712 411.897 191.675 416.558 191.717 421.219C191.746 424.397 191.96 427.574 191.973 430.753C191.982 432.879 191.794 435.007 191.666 437.133C191.65 437.415 191.543 437.755 191.355 437.952C191.007 438.316 190.569 438.595 190.168 438.909C189.899 438.53 189.456 438.178 189.391 437.766C189.161 436.293 189.008 434.803 188.92 433.315C188.801 431.281 188.713 429.241 188.711 427.205C188.708 423.926 188.812 420.647 188.816 417.368C188.817 416.279 188.56 415.188 188.578 414.101C188.668 408.581 188.885 403.062 188.91 397.542C188.927 393.718 188.704 389.893 188.588 386.068C188.513 383.635 188.487 381.201 188.349 378.772C188.211 376.342 187.839 373.921 187.792 371.491C187.733 368.463 187.95 365.429 187.954 362.398C187.956 360.879 187.7 359.362 187.647 357.841C187.549 354.97 187.45 352.096 187.474 349.224C187.491 347.189 187.674 345.152 187.846 343.121C187.998 341.327 187.827 339.636 187.16 337.918C186.768 336.909 186.874 335.673 186.895 334.543C186.962 331.138 187.123 327.737 187.199 324.333C187.301 319.754 187.414 315.174 187.418 310.594C187.422 306.093 187.355 301.589 187.206 297.09C187.121 294.547 186.663 292.012 186.632 289.47C186.575 284.817 186.728 280.161 186.759 275.507C186.783 271.848 186.704 268.187 186.765 264.529C186.809 261.908 186.933 259.282 187.18 256.673C187.263 255.797 187.835 254.967 188.393 253.605ZM359.434 303.095C359.432 303.172 359.429 303.249 359.427 303.326C359.128 303.326 358.828 303.328 358.529 303.325C356.158 303.301 355.484 303.914 355.523 306.328C355.545 307.712 355.693 309.113 355.987 310.462C356.091 310.941 356.759 311.602 357.224 311.649C360.086 311.939 362.962 312.179 365.836 312.233C368.1 312.275 370.372 311.896 372.636 311.936C376.205 311.998 379.769 312.33 383.338 312.408C386.699 312.482 390.033 312.1 393.432 312.56C397.915 313.167 402.437 312.341 406.932 311.983C407.671 311.923 408.895 311.357 408.983 310.862C409.325 308.944 409.395 306.959 409.342 305.004C409.329 304.509 408.553 303.733 408.011 303.614C406.823 303.351 405.56 303.361 404.329 303.376C401.315 303.415 398.302 303.589 395.289 303.579C391.886 303.568 388.484 303.354 385.081 303.34C381.705 303.327 378.326 303.538 374.95 303.496C369.777 303.432 364.606 303.235 359.434 303.095ZM224.994 356.964C225.044 356.765 225.095 356.566 225.146 356.368C224.959 356.102 224.812 355.792 224.578 355.578C221.775 353.023 218.986 350.452 216.138 347.948C213.667 345.775 211.341 343.493 209.645 340.637C209.317 340.083 208.892 339.588 208.523 339.057C207.174 337.117 205.704 335.247 204.515 333.212C202.925 330.489 201.559 327.635 200.085 324.844C199.952 324.592 199.729 324.387 199.289 323.836C199.124 324.653 198.953 325.159 198.93 325.671C198.823 328.036 198.746 330.403 198.681 332.77C198.659 333.562 198.655 334.362 198.726 335.15C198.9 337.067 199.292 338.978 199.292 340.892C199.292 345.539 199.124 350.185 199.012 354.831C198.985 355.931 199.863 356.93 200.998 357.013C202.681 357.136 204.367 357.359 206.049 357.337C212.365 357.257 218.679 357.095 224.994 356.964ZM347.107 311.55C348.061 311.607 349.041 311.708 350.022 311.711C351.069 311.714 351.873 311.328 351.949 310.116C352.03 308.829 352.085 307.54 352.185 306.254C352.354 304.065 351.749 303.517 349.576 303.694C347.167 303.89 344.749 304.094 342.337 304.076C336.047 304.029 329.758 303.828 323.469 303.759C320.397 303.725 317.323 303.818 314.252 303.922C313.603 303.945 312.665 304.063 312.373 304.489C311.088 306.362 309.882 308.31 308.867 310.341C308.281 311.515 308.877 312.355 309.994 312.316C312.166 312.242 314.335 312.1 316.506 312.001C319.077 311.885 321.648 311.763 324.221 311.692C324.956 311.671 325.695 311.87 326.433 311.877C328.547 311.896 330.663 311.887 332.778 311.855C336.242 311.802 339.707 311.731 343.171 311.639C343.465 311.632 343.755 311.411 344.072 311.278C342.191 308.541 342.19 308.541 343.604 307.363C345.181 306.048 347.273 305.96 348.454 307.221C348.773 307.561 349.202 308.224 349.072 308.484C348.556 309.516 347.839 310.447 347.107 311.55ZM353.204 296.513C353.146 297.829 352.956 299.027 354.246 299.245C354.778 299.335 355.758 298.668 356.024 298.104C357.185 295.644 358.204 293.113 359.189 290.575C360.553 287.063 361.864 283.528 363.155 279.988C364.174 277.193 365.117 274.37 366.118 271.567C367.624 267.352 369.159 263.147 370.666 258.932C371.467 256.694 372.214 254.437 373.025 252.202C373.868 249.881 374.773 247.583 375.609 245.259C375.704 244.994 375.598 244.39 375.466 244.352C374.362 244.027 373.214 243.563 372.111 243.636C371.515 243.675 370.837 244.6 370.462 245.274C370.089 245.946 370.124 246.829 369.852 247.573C368.778 250.504 367.609 253.401 366.56 256.34C365.2 260.15 363.951 264 362.599 267.812C361.231 271.671 359.768 275.496 358.398 279.353C357.392 282.186 356.618 285.11 355.467 287.879C354.263 290.773 353.461 293.716 353.204 296.513ZM338.206 293.539C338.043 293.69 337.88 293.841 337.717 293.993C338.423 295.804 338.983 297.697 339.928 299.373C340.191 299.839 341.738 300.002 342.431 299.698C343.306 299.315 342.75 298.465 342.268 297.826C341.548 296.873 340.975 295.8 340.186 294.915C339.666 294.331 338.876 293.989 338.206 293.539ZM256.94 173.229C257.087 173.497 257.153 173.825 257.318 173.887C259.454 174.686 261.631 175.238 263.921 174.625C264.141 174.566 264.297 174.269 264.483 174.082C264.252 173.879 264.039 173.527 263.788 173.497C261.744 173.254 259.694 173.062 257.643 172.888C257.446 172.871 257.228 173.083 256.94 173.229Z" fill="black"/>
<path d="M322.817 422.221C322.817 423.254 322.854 423.906 322.809 424.552C322.728 425.729 322.162 426.061 321.32 425.245C320.531 424.48 319.882 423.454 319.487 422.422C318.635 420.197 317.99 417.894 317.252 415.624C317.099 415.151 316.98 414.648 316.727 414.23C316.495 413.849 316.103 413.564 315.782 413.237C315.589 413.657 315.259 414.067 315.227 414.498C315.144 415.632 315.183 416.776 315.188 417.916C315.201 421.41 315.224 424.904 315.233 428.398C315.233 428.641 315.19 428.904 315.092 429.124C314.092 431.365 309.822 432.678 307.661 431.53C305.517 430.392 305.402 428.419 305.345 426.412C305.266 423.636 305.243 420.859 305.227 418.082C305.211 415.365 305.245 412.647 305.237 409.93C305.228 406.631 305.179 403.332 305.184 400.033C305.188 397.604 305.202 395.173 305.301 392.747C305.475 388.453 304.826 384.541 301.584 381.264C299.515 379.172 297.95 376.588 296.068 374.299C295.038 373.047 293.869 371.893 292.655 370.816C292.298 370.499 291.498 370.401 291.044 370.575C290.762 370.683 290.649 371.488 290.631 371.986C290.477 376.384 290.363 380.782 290.23 385.18C290.208 385.927 290.116 386.673 290.111 387.419C290.093 390.493 290.025 393.569 290.106 396.641C290.254 402.226 290.581 407.808 290.666 413.393C290.723 417.211 290.443 421.033 290.416 424.854C290.4 427.268 290.457 429.695 290.696 432.095C290.897 434.111 290.191 436.016 288.464 437.071C286.605 438.207 284.683 438.9 282.433 438.329C280.37 437.806 279.672 436.806 279.688 434.639C279.715 430.929 279.554 427.218 279.518 423.507C279.488 420.297 279.554 417.086 279.522 413.875C279.485 410.265 279.364 406.655 279.327 403.044C279.315 401.913 279.362 400.765 279.546 399.652C280.327 394.951 278.833 390.386 278.789 385.745C278.762 382.871 279.008 379.995 279.135 377.12C279.17 376.326 279.237 375.534 279.247 374.74C279.263 373.545 278.814 372.729 277.489 372.578C276.197 372.43 275.706 371.701 275.963 370.393C276.22 369.09 277.071 368.872 278.176 369.024C278.664 369.091 279.143 369.265 279.63 369.287C282.085 369.4 282.795 370.011 282.834 372.499C282.905 376.948 282.941 381.4 282.852 385.848C282.746 391.145 282.324 396.44 282.362 401.734C282.387 405.029 282.109 408.314 282.479 411.648C282.851 415.005 282.32 418.459 282.235 421.872C282.18 424.1 282.218 426.331 282.208 428.56C282.2 430.144 282.249 431.732 282.144 433.309C282.061 434.555 282.607 435.391 283.852 435.557C285.482 435.774 286.55 435.158 286.584 433.802C286.645 431.396 286.547 428.987 286.565 426.579C286.588 423.376 286.69 420.172 286.694 416.969C286.696 415.738 286.394 414.499 286.455 413.275C286.59 410.566 287.054 407.862 287.045 405.157C287.032 401.255 286.655 397.357 286.557 393.454C286.5 391.175 286.765 388.889 286.742 386.607C286.71 383.534 286.424 380.46 286.466 377.389C286.502 374.672 286.817 371.958 287.065 369.247C287.102 368.842 287.367 368.388 287.66 368.087C288.503 367.222 288.24 366.462 287.508 365.766C285.76 364.105 283.885 362.565 282.251 360.8C281.309 359.782 280.23 359.654 279.048 359.548C278.458 359.495 277.819 359.62 277.285 359.43C276.863 359.28 276.239 358.73 276.278 358.432C276.404 357.458 276.514 356.11 277.153 355.674C277.86 355.191 279.42 355.144 280.13 355.62C283.704 358.018 287.417 360.223 290.369 363.498C292.888 366.293 295.878 368.66 298.441 371.42C300.795 373.957 302.908 376.726 305.022 379.473C305.793 380.475 306.329 381.679 306.858 382.843C308.763 387.036 311.749 390.625 313.288 395.054C314.976 399.911 317.209 404.575 319.037 409.387C320.372 412.899 321.469 416.503 322.597 420.089C322.845 420.876 322.775 421.762 322.817 422.221ZM307.799 394.292C307.891 396.065 308.045 397.252 307.991 398.43C307.919 400 307.536 401.565 307.546 403.13C307.578 408.124 307.76 413.118 307.825 418.113C307.862 420.964 307.668 423.823 307.8 426.668C307.884 428.477 308.687 429.039 310.242 428.954C311.559 428.882 312.575 427.707 312.573 426.191C312.566 421.785 312.544 417.379 312.515 412.972C312.498 410.26 312.654 407.527 312.377 404.84C312.03 401.48 311.231 398.179 309.36 395.274C309.115 394.894 308.526 394.735 307.799 394.292Z" fill="black"/>
<path d="M341.779 430.95C345.616 429.976 349.32 429.285 352.847 428.078C356.97 426.667 360.996 424.972 364.596 422.359C366.216 421.184 368.275 420.634 370.055 419.654C374.033 417.463 377.553 414.694 380.442 411.148C381.222 410.191 382.244 409.432 383.034 408.48C386.256 404.597 389.49 400.72 392.582 396.734C393.399 395.682 393.709 394.242 394.281 392.994C394.953 391.525 395.834 390.126 396.31 388.598C397.263 385.537 397.996 382.454 397.2 379.157C396.435 375.986 394.391 374.666 391.395 374.088C388.864 373.6 386.534 374.07 384.276 375.04C381.972 376.029 379.759 377.228 377.472 378.259C377.046 378.452 376.276 378.481 375.997 378.225C375.734 377.983 375.711 377.141 375.934 376.779C376.496 375.865 377.127 374.902 377.965 374.27C379.378 373.203 379.996 371.869 380.042 370.176C380.153 366.066 380.263 361.955 380.376 357.844C380.384 357.544 380.303 357.183 380.44 356.958C380.817 356.339 381.204 355.387 381.737 355.273C382.827 355.04 382.868 356.061 382.899 356.885C383.043 360.671 383.254 364.456 383.321 368.243C383.368 370.872 384.615 371.766 386.884 370.498C387.381 370.221 387.877 369.446 387.895 368.886C388.013 365.211 387.994 361.532 388.038 357.855C388.043 357.375 388 356.778 388.255 356.449C388.532 356.092 389.134 355.831 389.592 355.833C389.838 355.834 390.263 356.46 390.293 356.83C390.395 358.06 390.346 359.302 390.371 360.54C390.427 363.314 390.448 366.091 390.6 368.861C390.626 369.341 391.123 369.96 391.573 370.213C392.288 370.617 393.133 370.82 393.945 371.012C395.494 371.379 396.169 370.772 396.152 369.176C396.111 365.267 396.066 361.357 396.076 357.448C396.081 355.39 397.444 354.393 399.35 355.105C399.88 355.304 400.539 355.995 400.58 356.506C400.703 358.028 400.501 359.573 400.512 361.109C400.546 366.036 400.613 370.964 400.686 375.891C400.691 376.228 400.775 376.609 400.95 376.89C402.96 380.118 402.305 383.403 401.278 386.738C400.89 387.996 400.596 389.316 400.5 390.625C400.313 393.192 400.242 395.772 400.219 398.347C400.168 403.783 400.27 409.221 400.13 414.654C400.055 417.568 399.511 420.468 399.36 423.383C399.235 425.795 399.412 428.222 399.389 430.642C399.373 432.355 398.809 432.779 397.171 432.762C394.374 432.735 391.575 432.866 388.78 432.795C386.579 432.74 384.376 432.544 382.189 432.285C381.202 432.167 380.452 431.58 380.39 430.412C380.224 427.253 380.04 424.096 379.838 420.94C379.795 420.275 379.642 419.618 379.541 418.957C378.932 419.243 378.287 419.47 377.72 419.823C374.188 422.02 370.791 424.469 367.117 426.393C363.93 428.062 360.446 429.17 357.076 430.48C355.013 431.281 352.947 432.1 350.826 432.719C348.781 433.316 346.676 433.956 344.575 434.049C342.132 434.157 340.737 433.511 341.779 430.95ZM395.676 400.059C395.235 400.619 394.965 400.932 394.728 401.269C393.616 402.848 392.456 404.397 391.433 406.032C390.924 406.844 390.399 407.803 390.352 408.721C390.17 412.219 390.135 415.728 390.132 419.233C390.129 422.072 390.239 424.912 390.32 427.751C390.371 429.58 391.214 430.356 393.053 430.314C393.84 430.296 394.627 430.246 395.414 430.241C396.591 430.232 397.186 429.522 397.244 428.482C397.331 426.92 397.315 425.343 397.214 423.78C397.075 421.612 396.791 419.454 396.616 417.287C396.514 416.022 396.489 414.75 396.453 413.48C396.43 412.64 396.388 411.793 396.459 410.958C396.764 407.393 396.511 403.878 395.676 400.059ZM387.73 411.716C384.869 412.742 383.433 414.604 383.408 417.087C383.373 420.605 383.447 424.125 383.456 427.644C383.463 430.442 383.721 430.605 386.446 429.958C387.634 429.676 388.033 429.085 387.814 427.948C387.72 427.458 387.595 426.961 387.6 426.468C387.636 422.836 387.698 419.204 387.762 415.572C387.767 415.276 387.889 414.98 387.88 414.686C387.853 413.754 387.789 412.823 387.73 411.716Z" fill="black"/>
<path d="M193.415 436.962C196.713 436.417 196.355 435.591 196.16 432.848C196.062 431.466 196.158 430.071 196.17 428.682C196.193 426.115 196.231 423.549 196.238 420.982C196.245 418.251 196.215 415.52 196.214 412.789C196.214 410.119 196.193 407.448 196.253 404.779C196.283 403.453 196.532 402.134 196.577 400.808C196.646 398.79 196.657 396.769 196.632 394.75C196.587 391.133 196.464 387.517 196.438 383.9C196.418 381.235 196.439 378.567 196.559 375.906C196.642 374.078 196.82 372.238 197.184 370.451C197.295 369.909 198.151 369.148 198.695 369.122C204.634 368.838 210.559 368.522 216.522 369.19C219.784 369.556 223.142 369.017 226.458 368.958C229.657 368.902 232.857 368.959 236.056 368.927C238.419 368.903 240.782 368.746 243.143 368.776C246.353 368.816 249.56 368.994 252.77 369.076C253.975 369.107 255.185 369.07 256.389 368.997C257.573 368.925 258.201 369.492 258.292 370.603C258.386 371.749 257.846 372.338 256.616 372.354C251.974 372.417 247.333 372.575 242.691 372.611C238.404 372.645 234.116 372.562 229.828 372.541C227.408 372.529 227.106 372.961 227.111 375.299C227.116 377.975 226.889 380.651 226.785 383.327C226.677 386.085 226.709 388.853 226.471 391.599C226.172 395.041 227.096 398.391 227.05 401.786C227.008 404.855 226.491 407.916 226.347 410.988C226.24 413.264 226.395 415.554 226.432 417.837C226.458 419.453 226.534 421.071 226.496 422.686C226.416 426.134 226.279 429.581 226.16 433.029C226.146 433.425 226.139 433.826 226.065 434.213C225.665 436.295 224.972 436.814 222.862 436.494C221.884 436.345 220.87 436.162 219.989 435.748C219.53 435.533 219.044 434.779 219.048 434.272C219.074 430.001 219.241 425.731 219.301 421.459C219.325 419.718 219.2 417.973 219.124 416.231C218.973 412.75 218.757 409.271 218.666 405.789C218.573 402.182 218.626 398.572 218.562 394.965C218.475 390.107 218.317 385.251 218.232 380.393C218.203 378.709 218.305 377.021 218.339 375.335C218.394 372.576 217.571 372.211 215.664 372.254C212.305 372.331 208.943 372.292 205.582 372.298C204.01 372.301 202.435 372.246 200.866 372.317C199.904 372.36 199.492 372.837 199.52 373.968C199.694 381.102 199.78 388.238 199.856 395.374C199.894 398.971 199.814 402.568 199.855 406.165C199.88 408.342 200.09 410.517 200.118 412.695C200.15 415.068 200.063 417.442 200.036 419.816C200.01 422.088 200.009 424.359 199.972 426.631C199.924 429.543 199.89 432.457 199.777 435.367C199.69 437.616 198.737 439.015 197.176 439.146C195.56 439.281 194.429 438.396 193.415 436.962ZM220.802 430.777C220.741 430.777 220.68 430.778 220.619 430.779C220.653 431.261 220.707 431.743 220.719 432.225C220.751 433.529 221.355 434.372 222.706 434.261C224.007 434.154 224.517 433.346 224.425 431.979C224.234 429.137 224.192 426.285 224.071 423.438C224.03 422.499 223.876 421.563 223.874 420.625C223.863 416.939 223.959 413.252 223.885 409.567C223.827 406.693 223.521 403.824 223.439 400.949C223.405 399.764 223.789 398.569 223.774 397.382C223.721 393.178 223.584 388.976 223.464 384.774C223.445 384.135 223.294 383.497 223.3 382.86C223.328 380.041 223.444 377.221 223.394 374.404C223.385 373.893 222.752 373.394 222.407 372.89C222.096 373.421 221.522 373.949 221.514 374.485C221.445 379.309 221.498 384.134 221.469 388.959C221.447 392.546 220.886 396.207 221.433 399.7C221.978 403.185 221.341 406.529 221.32 409.925C221.295 414.042 220.503 418.136 220.767 422.296C220.946 425.112 220.802 427.949 220.802 430.777Z" fill="black"/>
<path d="M342.395 382.472C341.247 381.015 341.453 379.329 343.071 377.893C346.523 374.828 350.327 372.199 354.56 370.422C356.26 369.709 358.514 369.827 360.405 370.174C363.111 370.669 365.474 371.984 367.013 374.544C368.105 376.362 368.718 378.169 368.477 380.298C368.351 381.412 368.771 382.659 368.422 383.663C367.274 386.966 365.817 390.161 364.613 393.446C363.536 396.383 361.725 398.839 359.802 401.218C357.103 404.556 354.17 407.712 351.581 411.13C349.28 414.17 346.68 416.866 343.79 419.315C343.41 419.637 343.06 420.06 342.617 420.22C342.282 420.341 341.668 420.262 341.447 420.023C340.779 419.3 340.877 417.032 341.612 416.287C343.63 414.241 345.76 412.303 347.736 410.219C350.606 407.192 353.478 404.156 356.149 400.957C357.231 399.661 357.718 397.885 358.596 396.398C359.978 394.06 361.368 391.715 362.928 389.494C365.127 386.362 364.754 383.026 364.054 379.608C363.716 377.958 363.219 376.333 361.657 375.484C360.624 374.924 359.393 374.404 358.257 374.418C354.777 374.461 351.784 375.928 349.016 378.001C346.886 379.596 344.606 380.991 342.395 382.472Z" fill="black"/>
<path d="M228.391 297.468C228.713 295.018 229.028 292.567 229.361 290.119C229.49 289.166 229.871 288.236 230.957 288.31C232.022 288.384 232.266 289.397 232.39 290.311C232.908 294.126 233.354 297.952 233.936 301.757C234.34 304.387 234.671 307.073 235.488 309.586C236.651 313.159 237.941 316.751 239.703 320.054C242.06 324.473 244.4 329.052 248.962 331.773C251.232 333.127 253.674 334.018 256.32 334.407C258.533 334.732 259.304 336.06 258.85 338.252C258.663 339.153 258.041 339.414 257.307 339.257C251.732 338.065 246.344 336.542 242.314 332.042C238.674 327.978 235.746 323.573 233.693 318.455C231.255 312.379 229.917 306.065 228.605 299.718C228.455 298.998 228.512 298.234 228.472 297.491C228.445 297.483 228.418 297.475 228.391 297.468Z" fill="black"/>
<path d="M298.285 274.315C298.017 270.343 297.731 266.373 297.496 262.399C297.441 261.472 297.538 260.533 297.601 259.602C297.867 255.617 298.13 251.631 298.434 247.648C298.507 246.683 298.541 245.645 298.923 244.787C299.594 243.281 301.022 243.161 301.847 244.593C302.514 245.751 302.843 247.135 303.153 248.459C303.608 250.405 303.8 252.416 304.31 254.345C304.97 256.84 305.552 259.262 305.242 261.923C305.018 263.855 305.49 265.866 305.638 267.843C305.825 270.351 306.149 272.861 306.125 275.367C306.108 277.119 305.681 278.882 305.3 280.61C304.974 282.094 303.936 283.07 302.438 283.281C301.019 283.481 300.256 282.577 299.582 281.368C298.343 279.146 298.127 276.77 298.285 274.315Z" fill="black"/>
<path d="M274.459 273.344C274.777 270.49 275.124 267.784 275.366 265.069C275.533 263.201 275.483 261.313 275.657 259.447C276.025 255.498 276.424 251.551 276.922 247.618C277.076 246.403 277.732 245.263 279.124 245.11C280.537 244.954 281.249 246.088 281.518 247.177C282 249.131 282.254 251.15 282.484 253.155C282.672 254.804 282.799 256.476 282.757 258.132C282.661 261.877 282.48 265.621 282.259 269.361C282.155 271.107 281.837 272.839 281.692 274.584C281.542 276.408 281.546 278.246 281.361 280.066C281.238 281.285 280.616 282.292 279.262 282.414C278.1 282.519 277.125 282.277 276.41 281.048C274.981 278.591 274.746 275.909 274.459 273.344Z" fill="black"/>
<path d="M389.591 388.67C390.532 389.205 391.323 389.491 391.894 390.016C392.882 390.923 392.458 392.562 391.147 392.571C388.169 392.593 386.925 394.937 385.213 396.613C382.318 399.446 379.51 402.373 376.743 405.332C373.426 408.878 369.315 411.354 365.338 414.019C362.049 416.223 358.78 418.46 355.471 420.634C354.646 421.177 353.729 421.622 352.795 421.938C352.374 422.081 351.576 421.962 351.369 421.667C351.137 421.335 351.175 420.458 351.453 420.191C352.44 419.241 353.502 418.318 354.676 417.625C357.489 415.964 360.535 414.661 363.203 412.805C366.601 410.441 369.827 407.795 372.924 405.042C375.428 402.815 377.695 400.306 379.949 397.816C382.071 395.473 383.944 392.901 386.122 390.617C386.975 389.722 388.361 389.335 389.591 388.67Z" fill="black"/>
<path d="M246.387 284.695C246.554 285.268 246.802 285.831 246.875 286.416C247.541 291.776 248.034 297.162 248.869 302.494C249.456 306.246 251.462 309.471 253.563 312.59C253.834 312.992 254.291 313.458 254.245 313.845C254.155 314.595 253.93 315.468 253.434 315.968C253.212 316.191 251.977 315.838 251.589 315.402C247.169 310.434 244.434 304.7 244.259 297.962C244.178 294.806 244.28 291.635 244.502 288.485C244.593 287.19 245.218 285.933 245.6 284.659C245.862 284.671 246.125 284.683 246.387 284.695Z" fill="black"/>
<path d="M284.767 304.027C283.369 303.715 282.363 303.603 281.441 303.263C278.382 302.134 275.264 301.103 272.352 299.664C271.034 299.012 270.146 297.489 269.067 296.358C268.249 295.501 267.399 294.671 266.64 293.765C266.269 293.322 265.858 292.735 265.854 292.21C265.849 291.563 266.078 290.587 266.52 290.356C266.955 290.13 267.948 290.477 268.407 290.892C269.727 292.086 270.706 293.764 272.18 294.657C274.3 295.942 276.693 296.831 279.054 297.644C280.909 298.283 282.915 298.468 284.805 299.023C285.616 299.261 286.518 299.775 286.978 300.44C287.336 300.958 287.381 302.158 287.015 302.603C286.426 303.319 285.384 303.664 284.767 304.027Z" fill="black"/>
<path d="M387.556 279.116C387.839 274.158 388.398 269.578 390.926 265.57C391.745 264.27 393.113 263.285 394.341 262.295C394.672 262.028 395.413 262.27 395.965 262.278C395.94 262.837 395.938 263.398 395.875 263.953C395.855 264.13 395.71 264.351 395.556 264.446C393.278 265.855 392.683 268.336 391.777 270.561C390.754 273.076 389.939 275.68 389.144 278.279C388.79 279.441 389.337 280.429 390.362 281.064C391.351 281.677 392.167 281.328 392.839 280.475C394.416 278.473 395.743 276.34 396.232 273.792C396.479 272.502 396.569 271.174 396.917 269.914C397.052 269.427 397.707 269.083 398.125 268.673C398.388 269.095 398.949 269.587 398.869 269.928C397.785 274.528 396.663 279.128 393.79 283.04C393.115 283.959 392.4 284.769 391.068 284.354C389.516 283.871 388.255 283.067 387.872 281.37C387.683 280.531 387.629 279.661 387.556 279.116Z" fill="black"/>
<path d="M342.977 405.21C343.379 404.177 343.685 403.092 344.209 402.125C344.77 401.09 345.532 400.162 346.215 399.194C348.293 396.245 350.172 393.124 352.524 390.413C354.206 388.475 356.481 387.032 358.586 385.498C359.105 385.12 360.133 384.956 360.677 385.216C361.373 385.549 362.046 386.34 362.273 387.074C362.391 387.46 361.629 388.264 361.104 388.673C359.75 389.725 358.332 390.702 356.894 391.638C353.988 393.529 351.926 396.267 349.665 398.795C347.967 400.694 346.447 402.752 344.807 404.704C344.477 405.098 343.963 405.339 343.533 405.651C343.348 405.504 343.162 405.357 342.977 405.21Z" fill="black"/>
<path d="M271.281 307.621C269.161 307.286 266.427 305.151 266.1 303.351C266.032 302.979 266.221 302.372 266.503 302.174C266.827 301.946 267.451 301.892 267.831 302.045C269.216 302.599 270.646 303.132 271.87 303.955C272.522 304.393 273.14 305.426 273.104 306.156C273.077 306.674 271.928 307.135 271.281 307.621Z" fill="black"/>
<path d="M321.258 357.383C321.014 356.827 320.771 356.269 320.528 355.713C320.828 355.599 321.127 355.485 321.427 355.372C321.634 355.944 321.84 356.517 322.047 357.09C321.784 357.187 321.521 357.286 321.258 357.383Z" fill="black"/>
</svg>
