<svg width="364" height="105" viewBox="0 0 364 105" fill="none" xmlns="http://www.w3.org/2000/svg">
<g filter="url(#filter0_d_533_38)">
<path d="M0 8C0 3.58172 3.58172 0 8 0H354C358.418 0 362 3.58172 362 8V95C362 99.4183 358.418 103 354 103H8C3.58172 103 0 99.4183 0 95V8Z" fill="white"/>
<path d="M1 8C1 4.13401 4.13401 1 8 1H354C357.866 1 361 4.13401 361 8V95C361 98.866 357.866 102 354 102H8C4.134 102 1 98.866 1 95V8Z" stroke="#1B1C1D" stroke-width="2"/>
</g>
<path d="M14 19C14 18.4477 14.4477 18 15 18H60C60.5523 18 61 18.4477 61 19V30C61 30.5523 60.5523 31 60 31H15C14.4477 31 14 30.5523 14 30V19Z" fill="#FFE8E5"/>
<path d="M15.9573 78.4731V80.2049H16.1404M20.9755 80.8975C20.8206 79.5308 19.7607 78.4731 18.4762 78.4731C17.4191 78.4731 16.5141 79.1894 16.1404 80.2049M16.1404 80.2049H17.5316M20.995 84.0146V82.2829H20.8119M20.8119 82.2829C20.4383 83.2983 19.5333 84.0146 18.4762 84.0146C17.1917 84.0146 16.1318 82.957 15.9768 81.5902M20.8119 82.2829H19.4208" stroke="#B5B4B0" stroke-width="0.865854" stroke-linecap="round" stroke-linejoin="round"/>
<path d="M345.245 58.9609L341.878 62.3281L338.51 58.9609" stroke="#878784" stroke-width="1.15447" stroke-linecap="round" stroke-linejoin="round"/>
<path d="M32.488 25V23.404L31.12 20.8H31.69L32.74 22.924L33.79 20.8H34.354L32.992 23.404V25H32.488ZM35.7231 25.072C35.4431 25.072 35.1911 25.008 34.9671 24.88C34.7431 24.752 34.5651 24.572 34.4331 24.34C34.3051 24.104 34.2411 23.828 34.2411 23.512C34.2411 23.196 34.3071 22.922 34.4391 22.69C34.5711 22.454 34.7491 22.272 34.9731 22.144C35.2011 22.016 35.4551 21.952 35.7351 21.952C36.0151 21.952 36.2671 22.016 36.4911 22.144C36.7151 22.272 36.8911 22.454 37.0191 22.69C37.1511 22.922 37.2171 23.196 37.2171 23.512C37.2171 23.828 37.1511 24.104 37.0191 24.34C36.8871 24.572 36.7071 24.752 36.4791 24.88C36.2551 25.008 36.0031 25.072 35.7231 25.072ZM35.7231 24.64C35.8951 24.64 36.0551 24.598 36.2031 24.514C36.3511 24.43 36.4711 24.304 36.5631 24.136C36.6551 23.968 36.7011 23.76 36.7011 23.512C36.7011 23.264 36.6551 23.056 36.5631 22.888C36.4751 22.72 36.3571 22.594 36.2091 22.51C36.0611 22.426 35.9031 22.384 35.7351 22.384C35.5631 22.384 35.4031 22.426 35.2551 22.51C35.1071 22.594 34.9871 22.72 34.8951 22.888C34.8031 23.056 34.7571 23.264 34.7571 23.512C34.7571 23.76 34.8031 23.968 34.8951 24.136C34.9871 24.304 35.1051 24.43 35.2491 24.514C35.3971 24.598 35.5551 24.64 35.7231 24.64ZM39.0039 25.072C38.6519 25.072 38.3719 24.966 38.1639 24.754C37.9559 24.538 37.8519 24.208 37.8519 23.764V22.024H38.3559V23.71C38.3559 24.33 38.6099 24.64 39.1179 24.64C39.3779 24.64 39.5919 24.548 39.7599 24.364C39.9319 24.176 40.0179 23.91 40.0179 23.566V22.024H40.5219V25H40.0659L40.0299 24.466C39.9379 24.654 39.7999 24.802 39.6159 24.91C39.4359 25.018 39.2319 25.072 39.0039 25.072ZM42.5275 25C42.2555 25 42.0415 24.934 41.8855 24.802C41.7295 24.67 41.6515 24.432 41.6515 24.088V22.45H41.1355V22.024H41.6515L41.7175 21.31H42.1555V22.024H43.0315V22.45H42.1555V24.088C42.1555 24.276 42.1935 24.404 42.2695 24.472C42.3455 24.536 42.4795 24.568 42.6715 24.568H42.9835V25H42.5275ZM44.7578 25.072C44.4058 25.072 44.1258 24.966 43.9178 24.754C43.7098 24.538 43.6058 24.208 43.6058 23.764V22.024H44.1098V23.71C44.1098 24.33 44.3638 24.64 44.8718 24.64C45.1318 24.64 45.3458 24.548 45.5138 24.364C45.6858 24.176 45.7718 23.91 45.7718 23.566V22.024H46.2758V25H45.8198L45.7838 24.466C45.6918 24.654 45.5538 24.802 45.3698 24.91C45.1898 25.018 44.9858 25.072 44.7578 25.072ZM48.6954 25.072C48.4514 25.072 48.2334 25.022 48.0414 24.922C47.8534 24.822 47.7094 24.682 47.6094 24.502L47.5614 25H47.1054V20.68H47.6094V22.516C47.7054 22.372 47.8414 22.242 48.0174 22.126C48.1974 22.01 48.4254 21.952 48.7014 21.952C48.9974 21.952 49.2554 22.02 49.4754 22.156C49.6954 22.292 49.8654 22.478 49.9854 22.714C50.1094 22.95 50.1714 23.218 50.1714 23.518C50.1714 23.818 50.1094 24.086 49.9854 24.322C49.8654 24.554 49.6934 24.738 49.4694 24.874C49.2494 25.006 48.9914 25.072 48.6954 25.072ZM48.6414 24.634C48.8414 24.634 49.0174 24.588 49.1694 24.496C49.3214 24.4 49.4414 24.268 49.5294 24.1C49.6174 23.932 49.6614 23.736 49.6614 23.512C49.6614 23.288 49.6174 23.092 49.5294 22.924C49.4414 22.756 49.3214 22.626 49.1694 22.534C49.0174 22.438 48.8414 22.39 48.6414 22.39C48.4414 22.39 48.2654 22.438 48.1134 22.534C47.9614 22.626 47.8414 22.756 47.7534 22.924C47.6654 23.092 47.6214 23.288 47.6214 23.512C47.6214 23.736 47.6654 23.932 47.7534 24.1C47.8414 24.268 47.9614 24.4 48.1134 24.496C48.2654 24.588 48.4414 24.634 48.6414 24.634ZM52.211 25.072C51.927 25.072 51.675 25.008 51.455 24.88C51.235 24.748 51.061 24.566 50.933 24.334C50.809 24.102 50.747 23.828 50.747 23.512C50.747 23.2 50.809 22.928 50.933 22.696C51.057 22.46 51.229 22.278 51.449 22.15C51.673 22.018 51.931 21.952 52.223 21.952C52.511 21.952 52.759 22.018 52.967 22.15C53.179 22.278 53.341 22.448 53.453 22.66C53.565 22.872 53.621 23.1 53.621 23.344C53.621 23.388 53.619 23.432 53.615 23.476C53.615 23.52 53.615 23.57 53.615 23.626H51.245C51.257 23.854 51.309 24.044 51.401 24.196C51.497 24.344 51.615 24.456 51.755 24.532C51.899 24.608 52.051 24.646 52.211 24.646C52.419 24.646 52.593 24.598 52.733 24.502C52.873 24.406 52.975 24.276 53.039 24.112H53.537C53.457 24.388 53.303 24.618 53.075 24.802C52.851 24.982 52.563 25.072 52.211 25.072ZM52.211 22.378C51.971 22.378 51.757 22.452 51.569 22.6C51.385 22.744 51.279 22.956 51.251 23.236H53.123C53.111 22.968 53.019 22.758 52.847 22.606C52.675 22.454 52.463 22.378 52.211 22.378Z" fill="#FA5041"/>
<path d="M71.572 27.144C70.748 27.144 70.036 26.964 69.436 26.604C68.844 26.236 68.384 25.728 68.056 25.08C67.728 24.424 67.564 23.664 67.564 22.8C67.564 21.944 67.728 21.192 68.056 20.544C68.384 19.888 68.844 19.376 69.436 19.008C70.036 18.64 70.748 18.456 71.572 18.456C72.532 18.456 73.312 18.688 73.912 19.152C74.52 19.608 74.908 20.248 75.076 21.072H73.96C73.832 20.552 73.568 20.136 73.168 19.824C72.776 19.504 72.244 19.344 71.572 19.344C70.972 19.344 70.448 19.484 70 19.764C69.552 20.036 69.204 20.432 68.956 20.952C68.716 21.464 68.596 22.08 68.596 22.8C68.596 23.52 68.716 24.14 68.956 24.66C69.204 25.172 69.552 25.568 70 25.848C70.448 26.12 70.972 26.256 71.572 26.256C72.244 26.256 72.776 26.104 73.168 25.8C73.568 25.488 73.832 25.076 73.96 24.564H75.076C74.908 25.372 74.52 26.004 73.912 26.46C73.312 26.916 72.532 27.144 71.572 27.144ZM76.4647 27V21.048H77.3767L77.4607 22.188C77.6447 21.796 77.9247 21.484 78.3007 21.252C78.6767 21.02 79.1407 20.904 79.6927 20.904V21.96H79.4167C79.0647 21.96 78.7407 22.024 78.4447 22.152C78.1487 22.272 77.9127 22.48 77.7367 22.776C77.5607 23.072 77.4727 23.48 77.4727 24V27H76.4647ZM83.2774 27.144C82.7094 27.144 82.2054 27.016 81.7654 26.76C81.3254 26.496 80.9774 26.132 80.7214 25.668C80.4734 25.204 80.3494 24.656 80.3494 24.024C80.3494 23.4 80.4734 22.856 80.7214 22.392C80.9694 21.92 81.3134 21.556 81.7534 21.3C82.2014 21.036 82.7174 20.904 83.3014 20.904C83.8774 20.904 84.3734 21.036 84.7894 21.3C85.2134 21.556 85.5374 21.896 85.7614 22.32C85.9854 22.744 86.0974 23.2 86.0974 23.688C86.0974 23.776 86.0934 23.864 86.0854 23.952C86.0854 24.04 86.0854 24.14 86.0854 24.252H81.3454C81.3694 24.708 81.4734 25.088 81.6574 25.392C81.8494 25.688 82.0854 25.912 82.3654 26.064C82.6534 26.216 82.9574 26.292 83.2774 26.292C83.6934 26.292 84.0414 26.196 84.3214 26.004C84.6014 25.812 84.8054 25.552 84.9334 25.224H85.9294C85.7694 25.776 85.4614 26.236 85.0054 26.604C84.5574 26.964 83.9814 27.144 83.2774 27.144ZM83.2774 21.756C82.7974 21.756 82.3694 21.904 81.9934 22.2C81.6254 22.488 81.4134 22.912 81.3574 23.472H85.1014C85.0774 22.936 84.8934 22.516 84.5494 22.212C84.2054 21.908 83.7814 21.756 83.2774 21.756ZM89.4135 27.144C88.9175 27.144 88.5055 27.06 88.1775 26.892C87.8495 26.724 87.6055 26.5 87.4455 26.22C87.2855 25.94 87.2055 25.636 87.2055 25.308C87.2055 24.7 87.4375 24.232 87.9015 23.904C88.3655 23.576 88.9975 23.412 89.7975 23.412H91.4055V23.34C91.4055 22.82 91.2695 22.428 90.9975 22.164C90.7255 21.892 90.3615 21.756 89.9055 21.756C89.5135 21.756 89.1735 21.856 88.8855 22.056C88.6055 22.248 88.4295 22.532 88.3575 22.908H87.3255C87.3655 22.476 87.5095 22.112 87.7575 21.816C88.0135 21.52 88.3295 21.296 88.7055 21.144C89.0815 20.984 89.4815 20.904 89.9055 20.904C90.7375 20.904 91.3615 21.128 91.7775 21.576C92.2015 22.016 92.4135 22.604 92.4135 23.34V27H91.5135L91.4535 25.932C91.2855 26.268 91.0375 26.556 90.7095 26.796C90.3895 27.028 89.9575 27.144 89.4135 27.144ZM89.5695 26.292C89.9535 26.292 90.2815 26.192 90.5535 25.992C90.8335 25.792 91.0455 25.532 91.1895 25.212C91.3335 24.892 91.4055 24.556 91.4055 24.204V24.192H89.8815C89.2895 24.192 88.8695 24.296 88.6215 24.504C88.3815 24.704 88.2615 24.956 88.2615 25.26C88.2615 25.572 88.3735 25.824 88.5975 26.016C88.8295 26.2 89.1535 26.292 89.5695 26.292ZM96.1136 27C95.5696 27 95.1416 26.868 94.8296 26.604C94.5176 26.34 94.3616 25.864 94.3616 25.176V21.9H93.3296V21.048H94.3616L94.4936 19.62H95.3696V21.048H97.1216V21.9H95.3696V25.176C95.3696 25.552 95.4456 25.808 95.5976 25.944C95.7496 26.072 96.0176 26.136 96.4016 26.136H97.0256V27H96.1136ZM100.95 27.144C100.39 27.144 99.8862 27.016 99.4382 26.76C98.9902 26.504 98.6342 26.144 98.3702 25.68C98.1142 25.208 97.9862 24.656 97.9862 24.024C97.9862 23.392 98.1182 22.844 98.3822 22.38C98.6462 21.908 99.0022 21.544 99.4502 21.288C99.9062 21.032 100.414 20.904 100.974 20.904C101.534 20.904 102.038 21.032 102.486 21.288C102.934 21.544 103.286 21.908 103.542 22.38C103.806 22.844 103.938 23.392 103.938 24.024C103.938 24.656 103.806 25.208 103.542 25.68C103.278 26.144 102.918 26.504 102.462 26.76C102.014 27.016 101.51 27.144 100.95 27.144ZM100.95 26.28C101.294 26.28 101.614 26.196 101.91 26.028C102.206 25.86 102.446 25.608 102.63 25.272C102.814 24.936 102.906 24.52 102.906 24.024C102.906 23.528 102.814 23.112 102.63 22.776C102.454 22.44 102.218 22.188 101.922 22.02C101.626 21.852 101.31 21.768 100.974 21.768C100.63 21.768 100.31 21.852 100.014 22.02C99.7182 22.188 99.4782 22.44 99.2942 22.776C99.1102 23.112 99.0182 23.528 99.0182 24.024C99.0182 24.52 99.1102 24.936 99.2942 25.272C99.4782 25.608 99.7142 25.86 100.002 26.028C100.298 26.196 100.614 26.28 100.95 26.28ZM105.34 27V21.048H106.252L106.336 22.188C106.52 21.796 106.8 21.484 107.176 21.252C107.552 21.02 108.016 20.904 108.568 20.904V21.96H108.292C107.94 21.96 107.616 22.024 107.32 22.152C107.024 22.272 106.788 22.48 106.612 22.776C106.436 23.072 106.348 23.48 106.348 24V27H105.34ZM111.979 27.144C111.267 27.144 110.675 26.964 110.203 26.604C109.731 26.244 109.455 25.756 109.375 25.14H110.407C110.471 25.452 110.635 25.724 110.899 25.956C111.171 26.18 111.535 26.292 111.991 26.292C112.415 26.292 112.727 26.204 112.927 26.028C113.127 25.844 113.227 25.628 113.227 25.38C113.227 25.02 113.095 24.78 112.831 24.66C112.575 24.54 112.211 24.432 111.739 24.336C111.419 24.272 111.099 24.18 110.779 24.06C110.459 23.94 110.191 23.772 109.975 23.556C109.759 23.332 109.651 23.04 109.651 22.68C109.651 22.16 109.843 21.736 110.227 21.408C110.619 21.072 111.147 20.904 111.811 20.904C112.443 20.904 112.959 21.064 113.359 21.384C113.767 21.696 114.003 22.144 114.067 22.728H113.071C113.031 22.424 112.899 22.188 112.675 22.02C112.459 21.844 112.167 21.756 111.799 21.756C111.439 21.756 111.159 21.832 110.959 21.984C110.767 22.136 110.671 22.336 110.671 22.584C110.671 22.824 110.795 23.012 111.043 23.148C111.299 23.284 111.643 23.4 112.075 23.496C112.443 23.576 112.791 23.676 113.119 23.796C113.455 23.908 113.727 24.08 113.935 24.312C114.151 24.536 114.259 24.864 114.259 25.296C114.267 25.832 114.063 26.276 113.647 26.628C113.239 26.972 112.683 27.144 111.979 27.144ZM121.587 27.144C121.027 27.144 120.523 27.016 120.075 26.76C119.627 26.504 119.271 26.144 119.007 25.68C118.751 25.208 118.623 24.656 118.623 24.024C118.623 23.392 118.755 22.844 119.019 22.38C119.283 21.908 119.639 21.544 120.087 21.288C120.543 21.032 121.051 20.904 121.611 20.904C122.171 20.904 122.675 21.032 123.123 21.288C123.571 21.544 123.923 21.908 124.179 22.38C124.443 22.844 124.575 23.392 124.575 24.024C124.575 24.656 124.443 25.208 124.179 25.68C123.915 26.144 123.555 26.504 123.099 26.76C122.651 27.016 122.147 27.144 121.587 27.144ZM121.587 26.28C121.931 26.28 122.251 26.196 122.547 26.028C122.843 25.86 123.083 25.608 123.267 25.272C123.451 24.936 123.543 24.52 123.543 24.024C123.543 23.528 123.451 23.112 123.267 22.776C123.091 22.44 122.855 22.188 122.559 22.02C122.263 21.852 121.947 21.768 121.611 21.768C121.267 21.768 120.947 21.852 120.651 22.02C120.355 22.188 120.115 22.44 119.931 22.776C119.747 23.112 119.655 23.528 119.655 24.024C119.655 24.52 119.747 24.936 119.931 25.272C120.115 25.608 120.351 25.86 120.639 26.028C120.935 26.196 121.251 26.28 121.587 26.28ZM125.976 27V21.048H126.888L126.948 22.116C127.14 21.74 127.416 21.444 127.776 21.228C128.136 21.012 128.544 20.904 129 20.904C129.704 20.904 130.264 21.12 130.68 21.552C131.104 21.976 131.316 22.632 131.316 23.52V27H130.308V23.628C130.308 22.388 129.796 21.768 128.772 21.768C128.26 21.768 127.832 21.956 127.488 22.332C127.152 22.7 126.984 23.228 126.984 23.916V27H125.976ZM135.551 27L138.647 18.6H139.715L142.799 27H141.731L140.963 24.84H137.387L136.607 27H135.551ZM137.687 24.024H140.663L139.175 19.872L137.687 24.024ZM144.6 19.728C144.4 19.728 144.232 19.664 144.096 19.536C143.968 19.4 143.904 19.232 143.904 19.032C143.904 18.84 143.968 18.68 144.096 18.552C144.232 18.424 144.4 18.36 144.6 18.36C144.792 18.36 144.956 18.424 145.092 18.552C145.228 18.68 145.296 18.84 145.296 19.032C145.296 19.232 145.228 19.4 145.092 19.536C144.956 19.664 144.792 19.728 144.6 19.728ZM144.096 27V21.048H145.104V27H144.096ZM146.859 27V21.048H147.771L147.855 22.188C148.039 21.796 148.319 21.484 148.695 21.252C149.071 21.02 149.535 20.904 150.087 20.904V21.96H149.811C149.459 21.96 149.135 22.024 148.839 22.152C148.543 22.272 148.307 22.48 148.131 22.776C147.955 23.072 147.867 23.48 147.867 24V27H146.859Z" fill="#1B1C1D"/>
<path d="M16.18 53.01L14.26 46H15.16L16.67 52.01L18.39 46H19.32L20.99 52.01L22.52 46H23.42L21.46 53H20.5L18.83 47.22L17.12 53L16.18 53.01ZM26.0802 53.12C25.6068 53.12 25.1868 53.0133 24.8202 52.8C24.4535 52.58 24.1635 52.2767 23.9502 51.89C23.7435 51.5033 23.6402 51.0467 23.6402 50.52C23.6402 50 23.7435 49.5467 23.9502 49.16C24.1568 48.7667 24.4435 48.4633 24.8102 48.25C25.1835 48.03 25.6135 47.92 26.1002 47.92C26.5802 47.92 26.9935 48.03 27.3402 48.25C27.6935 48.4633 27.9635 48.7467 28.1502 49.1C28.3368 49.4533 28.4302 49.8333 28.4302 50.24C28.4302 50.3133 28.4268 50.3867 28.4202 50.46C28.4202 50.5333 28.4202 50.6167 28.4202 50.71H24.4702C24.4902 51.09 24.5768 51.4067 24.7302 51.66C24.8902 51.9067 25.0868 52.0933 25.3202 52.22C25.5602 52.3467 25.8135 52.41 26.0802 52.41C26.4268 52.41 26.7168 52.33 26.9502 52.17C27.1835 52.01 27.3535 51.7933 27.4602 51.52H28.2902C28.1568 51.98 27.9002 52.3633 27.5202 52.67C27.1468 52.97 26.6668 53.12 26.0802 53.12ZM26.0802 48.63C25.6802 48.63 25.3235 48.7533 25.0102 49C24.7035 49.24 24.5268 49.5933 24.4802 50.06H27.6002C27.5802 49.6133 27.4268 49.2633 27.1402 49.01C26.8535 48.7567 26.5002 48.63 26.0802 48.63ZM31.7735 53.12C31.3002 53.12 30.8802 53.0133 30.5135 52.8C30.1468 52.58 29.8568 52.2767 29.6435 51.89C29.4368 51.5033 29.3335 51.0467 29.3335 50.52C29.3335 50 29.4368 49.5467 29.6435 49.16C29.8502 48.7667 30.1368 48.4633 30.5035 48.25C30.8768 48.03 31.3068 47.92 31.7935 47.92C32.2735 47.92 32.6868 48.03 33.0335 48.25C33.3868 48.4633 33.6568 48.7467 33.8435 49.1C34.0302 49.4533 34.1235 49.8333 34.1235 50.24C34.1235 50.3133 34.1202 50.3867 34.1135 50.46C34.1135 50.5333 34.1135 50.6167 34.1135 50.71H30.1635C30.1835 51.09 30.2702 51.4067 30.4235 51.66C30.5835 51.9067 30.7802 52.0933 31.0135 52.22C31.2535 52.3467 31.5068 52.41 31.7735 52.41C32.1202 52.41 32.4102 52.33 32.6435 52.17C32.8768 52.01 33.0468 51.7933 33.1535 51.52H33.9835C33.8502 51.98 33.5935 52.3633 33.2135 52.67C32.8402 52.97 32.3602 53.12 31.7735 53.12ZM31.7735 48.63C31.3735 48.63 31.0168 48.7533 30.7035 49C30.3968 49.24 30.2202 49.5933 30.1735 50.06H33.2935C33.2735 49.6133 33.1202 49.2633 32.8335 49.01C32.5468 48.7567 32.1935 48.63 31.7735 48.63ZM35.2369 53V45.8H36.0769V50.13L38.1069 48.04H39.1369L36.9369 50.28L39.4169 53H38.3469L36.0769 50.43V53H35.2369ZM40.2759 53V45.8H41.1159V53H40.2759ZM43.0327 55.2L44.2627 52.52H43.9727L42.0027 48.04H42.9127L44.5527 51.9L46.2927 48.04H47.1627L43.9127 55.2H43.0327ZM52.9759 53.12C52.5025 53.12 52.0759 53.0133 51.6959 52.8C51.3225 52.58 51.0259 52.2767 50.8059 51.89C50.5925 51.4967 50.4859 51.04 50.4859 50.52C50.4859 50 50.5925 49.5467 50.8059 49.16C51.0259 48.7667 51.3225 48.4633 51.6959 48.25C52.0759 48.03 52.5025 47.92 52.9759 47.92C53.5625 47.92 54.0559 48.0733 54.4559 48.38C54.8625 48.6867 55.1192 49.0967 55.2259 49.61H54.3659C54.2992 49.3033 54.1359 49.0667 53.8759 48.9C53.6159 48.7267 53.3125 48.64 52.9659 48.64C52.6859 48.64 52.4225 48.71 52.1759 48.85C51.9292 48.99 51.7292 49.2 51.5759 49.48C51.4225 49.76 51.3459 50.1067 51.3459 50.52C51.3459 50.9333 51.4225 51.28 51.5759 51.56C51.7292 51.84 51.9292 52.0533 52.1759 52.2C52.4225 52.34 52.6859 52.41 52.9659 52.41C53.3125 52.41 53.6159 52.3267 53.8759 52.16C54.1359 51.9867 54.2992 51.7433 54.3659 51.43H55.2259C55.1259 51.93 54.8725 52.3367 54.4659 52.65C54.0592 52.9633 53.5625 53.12 52.9759 53.12ZM58.659 53.12C58.1923 53.12 57.7723 53.0133 57.399 52.8C57.0257 52.5867 56.729 52.2867 56.509 51.9C56.2957 51.5067 56.189 51.0467 56.189 50.52C56.189 49.9933 56.299 49.5367 56.519 49.15C56.739 48.7567 57.0357 48.4533 57.409 48.24C57.789 48.0267 58.2123 47.92 58.679 47.92C59.1457 47.92 59.5657 48.0267 59.939 48.24C60.3123 48.4533 60.6057 48.7567 60.819 49.15C61.039 49.5367 61.149 49.9933 61.149 50.52C61.149 51.0467 61.039 51.5067 60.819 51.9C60.599 52.2867 60.299 52.5867 59.919 52.8C59.5457 53.0133 59.1257 53.12 58.659 53.12ZM58.659 52.4C58.9457 52.4 59.2123 52.33 59.459 52.19C59.7057 52.05 59.9057 51.84 60.059 51.56C60.2123 51.28 60.289 50.9333 60.289 50.52C60.289 50.1067 60.2123 49.76 60.059 49.48C59.9123 49.2 59.7157 48.99 59.469 48.85C59.2223 48.71 58.959 48.64 58.679 48.64C58.3923 48.64 58.1257 48.71 57.879 48.85C57.6323 48.99 57.4323 49.2 57.279 49.48C57.1257 49.76 57.049 50.1067 57.049 50.52C57.049 50.9333 57.1257 51.28 57.279 51.56C57.4323 51.84 57.629 52.05 57.869 52.19C58.1157 52.33 58.379 52.4 58.659 52.4ZM62.317 53V48.04H63.077L63.127 48.93C63.287 48.6167 63.517 48.37 63.817 48.19C64.117 48.01 64.457 47.92 64.837 47.92C65.4236 47.92 65.8903 48.1 66.237 48.46C66.5903 48.8133 66.767 49.36 66.767 50.1V53H65.927V50.19C65.927 49.1567 65.5003 48.64 64.647 48.64C64.2203 48.64 63.8636 48.7967 63.577 49.11C63.297 49.4167 63.157 49.8567 63.157 50.43V53H62.317ZM69.372 53L67.492 48.04H68.372L69.862 52.19L71.362 48.04H72.222L70.342 53H69.372ZM75.1329 53.12C74.6596 53.12 74.2396 53.0133 73.8729 52.8C73.5062 52.58 73.2162 52.2767 73.0029 51.89C72.7962 51.5033 72.6929 51.0467 72.6929 50.52C72.6929 50 72.7962 49.5467 73.0029 49.16C73.2096 48.7667 73.4962 48.4633 73.8629 48.25C74.2362 48.03 74.6662 47.92 75.1529 47.92C75.6329 47.92 76.0462 48.03 76.3929 48.25C76.7462 48.4633 77.0162 48.7467 77.2029 49.1C77.3896 49.4533 77.4829 49.8333 77.4829 50.24C77.4829 50.3133 77.4796 50.3867 77.4729 50.46C77.4729 50.5333 77.4729 50.6167 77.4729 50.71H73.5229C73.5429 51.09 73.6296 51.4067 73.7829 51.66C73.9429 51.9067 74.1396 52.0933 74.3729 52.22C74.6129 52.3467 74.8662 52.41 75.1329 52.41C75.4796 52.41 75.7696 52.33 76.0029 52.17C76.2362 52.01 76.4062 51.7933 76.5129 51.52H77.3429C77.2096 51.98 76.9529 52.3633 76.5729 52.67C76.1996 52.97 75.7196 53.12 75.1329 53.12ZM75.1329 48.63C74.7329 48.63 74.3762 48.7533 74.0629 49C73.7562 49.24 73.5796 49.5933 73.5329 50.06H76.6529C76.6329 49.6133 76.4796 49.2633 76.1929 49.01C75.9062 48.7567 75.5529 48.63 75.1329 48.63ZM78.5963 53V48.04H79.3563L79.4263 48.99C79.5796 48.6633 79.8129 48.4033 80.1263 48.21C80.4396 48.0167 80.8263 47.92 81.2863 47.92V48.8H81.0563C80.7629 48.8 80.4929 48.8533 80.2463 48.96C79.9996 49.06 79.8029 49.2333 79.6563 49.48C79.5096 49.7267 79.4363 50.0667 79.4363 50.5V53H78.5963ZM84.1291 53.12C83.5357 53.12 83.0424 52.97 82.6491 52.67C82.2557 52.37 82.0257 51.9633 81.9591 51.45H82.8191C82.8724 51.71 83.0091 51.9367 83.2291 52.13C83.4557 52.3167 83.7591 52.41 84.1391 52.41C84.4924 52.41 84.7524 52.3367 84.9191 52.19C85.0857 52.0367 85.1691 51.8567 85.1691 51.65C85.1691 51.35 85.0591 51.15 84.8391 51.05C84.6257 50.95 84.3224 50.86 83.9291 50.78C83.6624 50.7267 83.3957 50.65 83.1291 50.55C82.8624 50.45 82.6391 50.31 82.4591 50.13C82.2791 49.9433 82.1891 49.7 82.1891 49.4C82.1891 48.9667 82.3491 48.6133 82.6691 48.34C82.9957 48.06 83.4357 47.92 83.9891 47.92C84.5157 47.92 84.9457 48.0533 85.2791 48.32C85.6191 48.58 85.8157 48.9533 85.8691 49.44H85.0391C85.0057 49.1867 84.8957 48.99 84.7091 48.85C84.5291 48.7033 84.2857 48.63 83.9791 48.63C83.6791 48.63 83.4457 48.6933 83.2791 48.82C83.1191 48.9467 83.0391 49.1133 83.0391 49.32C83.0391 49.52 83.1424 49.6767 83.3491 49.79C83.5624 49.9033 83.8491 50 84.2091 50.08C84.5157 50.1467 84.8057 50.23 85.0791 50.33C85.3591 50.4233 85.5857 50.5667 85.7591 50.76C85.9391 50.9467 86.0291 51.22 86.0291 51.58C86.0357 52.0267 85.8657 52.3967 85.5191 52.69C85.1791 52.9767 84.7157 53.12 84.1291 53.12ZM88.8791 53.12C88.4657 53.12 88.1224 53.05 87.8491 52.91C87.5757 52.77 87.3724 52.5833 87.2391 52.35C87.1057 52.1167 87.0391 51.8633 87.0391 51.59C87.0391 51.0833 87.2324 50.6933 87.6191 50.42C88.0057 50.1467 88.5324 50.01 89.1991 50.01H90.5391V49.95C90.5391 49.5167 90.4257 49.19 90.1991 48.97C89.9724 48.7433 89.6691 48.63 89.2891 48.63C88.9624 48.63 88.6791 48.7133 88.4391 48.88C88.2057 49.04 88.0591 49.2767 87.9991 49.59H87.1391C87.1724 49.23 87.2924 48.9267 87.4991 48.68C87.7124 48.4333 87.9757 48.2467 88.2891 48.12C88.6024 47.9867 88.9357 47.92 89.2891 47.92C89.9824 47.92 90.5024 48.1067 90.8491 48.48C91.2024 48.8467 91.3791 49.3367 91.3791 49.95V53H90.6291L90.5791 52.11C90.4391 52.39 90.2324 52.63 89.9591 52.83C89.6924 53.0233 89.3324 53.12 88.8791 53.12ZM89.0091 52.41C89.3291 52.41 89.6024 52.3267 89.8291 52.16C90.0624 51.9933 90.2391 51.7767 90.3591 51.51C90.4791 51.2433 90.5391 50.9633 90.5391 50.67V50.66H89.2691C88.7757 50.66 88.4257 50.7467 88.2191 50.92C88.0191 51.0867 87.9191 51.2967 87.9191 51.55C87.9191 51.81 88.0124 52.02 88.1991 52.18C88.3924 52.3333 88.6624 52.41 89.0091 52.41ZM94.4625 53C94.0092 53 93.6525 52.89 93.3925 52.67C93.1325 52.45 93.0025 52.0533 93.0025 51.48V48.75H92.1425V48.04H93.0025L93.1125 46.85H93.8425V48.04H95.3025V48.75H93.8425V51.48C93.8425 51.7933 93.9058 52.0067 94.0325 52.12C94.1592 52.2267 94.3825 52.28 94.7025 52.28H95.2225V53H94.4625ZM96.8797 46.94C96.713 46.94 96.573 46.8867 96.4597 46.78C96.353 46.6667 96.2997 46.5267 96.2997 46.36C96.2997 46.2 96.353 46.0667 96.4597 45.96C96.573 45.8533 96.713 45.8 96.8797 45.8C97.0397 45.8 97.1764 45.8533 97.2897 45.96C97.403 46.0667 97.4597 46.2 97.4597 46.36C97.4597 46.5267 97.403 46.6667 97.2897 46.78C97.1764 46.8867 97.0397 46.94 96.8797 46.94ZM96.4597 53V48.04H97.2997V53H96.4597ZM101.022 53.12C100.556 53.12 100.136 53.0133 99.7623 52.8C99.3889 52.5867 99.0923 52.2867 98.8723 51.9C98.6589 51.5067 98.5523 51.0467 98.5523 50.52C98.5523 49.9933 98.6623 49.5367 98.8823 49.15C99.1023 48.7567 99.3989 48.4533 99.7723 48.24C100.152 48.0267 100.576 47.92 101.042 47.92C101.509 47.92 101.929 48.0267 102.302 48.24C102.676 48.4533 102.969 48.7567 103.182 49.15C103.402 49.5367 103.512 49.9933 103.512 50.52C103.512 51.0467 103.402 51.5067 103.182 51.9C102.962 52.2867 102.662 52.5867 102.282 52.8C101.909 53.0133 101.489 53.12 101.022 53.12ZM101.022 52.4C101.309 52.4 101.576 52.33 101.822 52.19C102.069 52.05 102.269 51.84 102.422 51.56C102.576 51.28 102.652 50.9333 102.652 50.52C102.652 50.1067 102.576 49.76 102.422 49.48C102.276 49.2 102.079 48.99 101.832 48.85C101.586 48.71 101.322 48.64 101.042 48.64C100.756 48.64 100.489 48.71 100.242 48.85C99.9956 48.99 99.7956 49.2 99.6423 49.48C99.4889 49.76 99.4123 50.1067 99.4123 50.52C99.4123 50.9333 99.4889 51.28 99.6423 51.56C99.7956 51.84 99.9923 52.05 100.232 52.19C100.479 52.33 100.742 52.4 101.022 52.4ZM104.68 53V48.04H105.44L105.49 48.93C105.65 48.6167 105.88 48.37 106.18 48.19C106.48 48.01 106.82 47.92 107.2 47.92C107.787 47.92 108.254 48.1 108.6 48.46C108.954 48.8133 109.13 49.36 109.13 50.1V53H108.29V50.19C108.29 49.1567 107.864 48.64 107.01 48.64C106.584 48.64 106.227 48.7967 105.94 49.11C105.66 49.4167 105.52 49.8567 105.52 50.43V53H104.68ZM112.303 53.12C111.71 53.12 111.216 52.97 110.823 52.67C110.43 52.37 110.2 51.9633 110.133 51.45H110.993C111.046 51.71 111.183 51.9367 111.403 52.13C111.63 52.3167 111.933 52.41 112.313 52.41C112.666 52.41 112.926 52.3367 113.093 52.19C113.26 52.0367 113.343 51.8567 113.343 51.65C113.343 51.35 113.233 51.15 113.013 51.05C112.8 50.95 112.496 50.86 112.103 50.78C111.836 50.7267 111.57 50.65 111.303 50.55C111.036 50.45 110.813 50.31 110.633 50.13C110.453 49.9433 110.363 49.7 110.363 49.4C110.363 48.9667 110.523 48.6133 110.843 48.34C111.17 48.06 111.61 47.92 112.163 47.92C112.69 47.92 113.12 48.0533 113.453 48.32C113.793 48.58 113.99 48.9533 114.043 49.44H113.213C113.18 49.1867 113.07 48.99 112.883 48.85C112.703 48.7033 112.46 48.63 112.153 48.63C111.853 48.63 111.62 48.6933 111.453 48.82C111.293 48.9467 111.213 49.1133 111.213 49.32C111.213 49.52 111.316 49.6767 111.523 49.79C111.736 49.9033 112.023 50 112.383 50.08C112.69 50.1467 112.98 50.23 113.253 50.33C113.533 50.4233 113.76 50.5667 113.933 50.76C114.113 50.9467 114.203 51.22 114.203 51.58C114.21 52.0267 114.04 52.3967 113.693 52.69C113.353 52.9767 112.89 53.12 112.303 53.12ZM119.049 53L117.599 48.04H118.439L119.489 51.93L120.649 48.04H121.599L122.769 51.93L123.809 48.04H124.659L123.209 53H122.349L121.129 48.91L119.909 53H119.049ZM126.098 46.94C125.932 46.94 125.792 46.8867 125.678 46.78C125.572 46.6667 125.518 46.5267 125.518 46.36C125.518 46.2 125.572 46.0667 125.678 45.96C125.792 45.8533 125.932 45.8 126.098 45.8C126.258 45.8 126.395 45.8533 126.508 45.96C126.622 46.0667 126.678 46.2 126.678 46.36C126.678 46.5267 126.622 46.6667 126.508 46.78C126.395 46.8867 126.258 46.94 126.098 46.94ZM125.678 53V48.04H126.518V53H125.678ZM129.941 53C129.488 53 129.131 52.89 128.871 52.67C128.611 52.45 128.481 52.0533 128.481 51.48V48.75H127.621V48.04H128.481L128.591 46.85H129.321V48.04H130.781V48.75H129.321V51.48C129.321 51.7933 129.384 52.0067 129.511 52.12C129.638 52.2267 129.861 52.28 130.181 52.28H130.701V53H129.941ZM131.848 53V45.8H132.688V48.89C132.855 48.5833 133.092 48.3467 133.398 48.18C133.705 48.0067 134.038 47.92 134.398 47.92C134.972 47.92 135.432 48.1 135.778 48.46C136.125 48.8133 136.298 49.36 136.298 50.1V53H135.468V50.19C135.468 49.1567 135.052 48.64 134.218 48.64C133.785 48.64 133.422 48.7967 133.128 49.11C132.835 49.4167 132.688 49.8567 132.688 50.43V53H131.848ZM142.497 53.12C142.024 53.12 141.597 53.0133 141.217 52.8C140.844 52.58 140.547 52.2767 140.327 51.89C140.114 51.4967 140.007 51.04 140.007 50.52C140.007 50 140.114 49.5467 140.327 49.16C140.547 48.7667 140.844 48.4633 141.217 48.25C141.597 48.03 142.024 47.92 142.497 47.92C143.084 47.92 143.577 48.0733 143.977 48.38C144.384 48.6867 144.641 49.0967 144.747 49.61H143.887C143.821 49.3033 143.657 49.0667 143.397 48.9C143.137 48.7267 142.834 48.64 142.487 48.64C142.207 48.64 141.944 48.71 141.697 48.85C141.451 48.99 141.251 49.2 141.097 49.48C140.944 49.76 140.867 50.1067 140.867 50.52C140.867 50.9333 140.944 51.28 141.097 51.56C141.251 51.84 141.451 52.0533 141.697 52.2C141.944 52.34 142.207 52.41 142.487 52.41C142.834 52.41 143.137 52.3267 143.397 52.16C143.657 51.9867 143.821 51.7433 143.887 51.43H144.747C144.647 51.93 144.394 52.3367 143.987 52.65C143.581 52.9633 143.084 53.12 142.497 53.12ZM145.92 53V48.04H146.68L146.75 48.99C146.904 48.6633 147.137 48.4033 147.45 48.21C147.764 48.0167 148.15 47.92 148.61 47.92V48.8H148.38C148.087 48.8 147.817 48.8533 147.57 48.96C147.324 49.06 147.127 49.2333 146.98 49.48C146.834 49.7267 146.76 50.0667 146.76 50.5V53H145.92ZM151.598 53.12C151.124 53.12 150.704 53.0133 150.338 52.8C149.971 52.58 149.681 52.2767 149.468 51.89C149.261 51.5033 149.158 51.0467 149.158 50.52C149.158 50 149.261 49.5467 149.468 49.16C149.674 48.7667 149.961 48.4633 150.328 48.25C150.701 48.03 151.131 47.92 151.618 47.92C152.098 47.92 152.511 48.03 152.858 48.25C153.211 48.4633 153.481 48.7467 153.668 49.1C153.854 49.4533 153.948 49.8333 153.948 50.24C153.948 50.3133 153.944 50.3867 153.938 50.46C153.938 50.5333 153.938 50.6167 153.938 50.71H149.988C150.008 51.09 150.094 51.4067 150.248 51.66C150.408 51.9067 150.604 52.0933 150.838 52.22C151.078 52.3467 151.331 52.41 151.598 52.41C151.944 52.41 152.234 52.33 152.468 52.17C152.701 52.01 152.871 51.7933 152.978 51.52H153.808C153.674 51.98 153.418 52.3633 153.038 52.67C152.664 52.97 152.184 53.12 151.598 53.12ZM151.598 48.63C151.198 48.63 150.841 48.7533 150.528 49C150.221 49.24 150.044 49.5933 149.998 50.06H153.118C153.098 49.6133 152.944 49.2633 152.658 49.01C152.371 48.7567 152.018 48.63 151.598 48.63ZM156.711 53.12C156.298 53.12 155.954 53.05 155.681 52.91C155.408 52.77 155.204 52.5833 155.071 52.35C154.938 52.1167 154.871 51.8633 154.871 51.59C154.871 51.0833 155.064 50.6933 155.451 50.42C155.838 50.1467 156.364 50.01 157.031 50.01H158.371V49.95C158.371 49.5167 158.258 49.19 158.031 48.97C157.804 48.7433 157.501 48.63 157.121 48.63C156.794 48.63 156.511 48.7133 156.271 48.88C156.038 49.04 155.891 49.2767 155.831 49.59H154.971C155.004 49.23 155.124 48.9267 155.331 48.68C155.544 48.4333 155.808 48.2467 156.121 48.12C156.434 47.9867 156.768 47.92 157.121 47.92C157.814 47.92 158.334 48.1067 158.681 48.48C159.034 48.8467 159.211 49.3367 159.211 49.95V53H158.461L158.411 52.11C158.271 52.39 158.064 52.63 157.791 52.83C157.524 53.0233 157.164 53.12 156.711 53.12ZM156.841 52.41C157.161 52.41 157.434 52.3267 157.661 52.16C157.894 51.9933 158.071 51.7767 158.191 51.51C158.311 51.2433 158.371 50.9633 158.371 50.67V50.66H157.101C156.608 50.66 156.258 50.7467 156.051 50.92C155.851 51.0867 155.751 51.2967 155.751 51.55C155.751 51.81 155.844 52.02 156.031 52.18C156.224 52.3333 156.494 52.41 156.841 52.41ZM162.295 53C161.841 53 161.485 52.89 161.225 52.67C160.965 52.45 160.835 52.0533 160.835 51.48V48.75H159.975V48.04H160.835L160.945 46.85H161.675V48.04H163.135V48.75H161.675V51.48C161.675 51.7933 161.738 52.0067 161.865 52.12C161.991 52.2267 162.215 52.28 162.535 52.28H163.055V53H162.295ZM166.325 53.12C165.858 53.12 165.438 53.0133 165.065 52.8C164.692 52.5867 164.395 52.2867 164.175 51.9C163.962 51.5067 163.855 51.0467 163.855 50.52C163.855 49.9933 163.965 49.5367 164.185 49.15C164.405 48.7567 164.702 48.4533 165.075 48.24C165.455 48.0267 165.878 47.92 166.345 47.92C166.812 47.92 167.232 48.0267 167.605 48.24C167.978 48.4533 168.272 48.7567 168.485 49.15C168.705 49.5367 168.815 49.9933 168.815 50.52C168.815 51.0467 168.705 51.5067 168.485 51.9C168.265 52.2867 167.965 52.5867 167.585 52.8C167.212 53.0133 166.792 53.12 166.325 53.12ZM166.325 52.4C166.612 52.4 166.878 52.33 167.125 52.19C167.372 52.05 167.572 51.84 167.725 51.56C167.878 51.28 167.955 50.9333 167.955 50.52C167.955 50.1067 167.878 49.76 167.725 49.48C167.578 49.2 167.382 48.99 167.135 48.85C166.888 48.71 166.625 48.64 166.345 48.64C166.058 48.64 165.792 48.71 165.545 48.85C165.298 48.99 165.098 49.2 164.945 49.48C164.792 49.76 164.715 50.1067 164.715 50.52C164.715 50.9333 164.792 51.28 164.945 51.56C165.098 51.84 165.295 52.05 165.535 52.19C165.782 52.33 166.045 52.4 166.325 52.4ZM169.983 53V48.04H170.743L170.813 48.99C170.966 48.6633 171.2 48.4033 171.513 48.21C171.826 48.0167 172.213 47.92 172.673 47.92V48.8H172.443C172.15 48.8 171.88 48.8533 171.633 48.96C171.386 49.06 171.19 49.2333 171.043 49.48C170.896 49.7267 170.823 50.0667 170.823 50.5V53H169.983ZM175.516 53.12C174.922 53.12 174.429 52.97 174.036 52.67C173.642 52.37 173.412 51.9633 173.346 51.45H174.206C174.259 51.71 174.396 51.9367 174.616 52.13C174.842 52.3167 175.146 52.41 175.526 52.41C175.879 52.41 176.139 52.3367 176.306 52.19C176.472 52.0367 176.556 51.8567 176.556 51.65C176.556 51.35 176.446 51.15 176.226 51.05C176.012 50.95 175.709 50.86 175.316 50.78C175.049 50.7267 174.782 50.65 174.516 50.55C174.249 50.45 174.026 50.31 173.846 50.13C173.666 49.9433 173.576 49.7 173.576 49.4C173.576 48.9667 173.736 48.6133 174.056 48.34C174.382 48.06 174.822 47.92 175.376 47.92C175.902 47.92 176.332 48.0533 176.666 48.32C177.006 48.58 177.202 48.9533 177.256 49.44H176.426C176.392 49.1867 176.282 48.99 176.096 48.85C175.916 48.7033 175.672 48.63 175.366 48.63C175.066 48.63 174.832 48.6933 174.666 48.82C174.506 48.9467 174.426 49.1133 174.426 49.32C174.426 49.52 174.529 49.6767 174.736 49.79C174.949 49.9033 175.236 50 175.596 50.08C175.902 50.1467 176.192 50.23 176.466 50.33C176.746 50.4233 176.972 50.5667 177.146 50.76C177.326 50.9467 177.416 51.22 177.416 51.58C177.422 52.0267 177.252 52.3967 176.906 52.69C176.566 52.9767 176.102 53.12 175.516 53.12ZM182.912 53.12C182.499 53.12 182.156 53.05 181.882 52.91C181.609 52.77 181.406 52.5833 181.272 52.35C181.139 52.1167 181.072 51.8633 181.072 51.59C181.072 51.0833 181.266 50.6933 181.652 50.42C182.039 50.1467 182.566 50.01 183.232 50.01H184.572V49.95C184.572 49.5167 184.459 49.19 184.232 48.97C184.006 48.7433 183.702 48.63 183.322 48.63C182.996 48.63 182.712 48.7133 182.472 48.88C182.239 49.04 182.092 49.2767 182.032 49.59H181.172C181.206 49.23 181.326 48.9267 181.532 48.68C181.746 48.4333 182.009 48.2467 182.322 48.12C182.636 47.9867 182.969 47.92 183.322 47.92C184.016 47.92 184.536 48.1067 184.882 48.48C185.236 48.8467 185.412 49.3367 185.412 49.95V53H184.662L184.612 52.11C184.472 52.39 184.266 52.63 183.992 52.83C183.726 53.0233 183.366 53.12 182.912 53.12ZM183.042 52.41C183.362 52.41 183.636 52.3267 183.862 52.16C184.096 51.9933 184.272 51.7767 184.392 51.51C184.512 51.2433 184.572 50.9633 184.572 50.67V50.66H183.302C182.809 50.66 182.459 50.7467 182.252 50.92C182.052 51.0867 181.952 51.2967 181.952 51.55C181.952 51.81 182.046 52.02 182.232 52.18C182.426 52.3333 182.696 52.41 183.042 52.41ZM189.322 53.12C188.916 53.12 188.552 53.0367 188.232 52.87C187.919 52.7033 187.679 52.47 187.512 52.17L187.432 53H186.672V45.8H187.512V48.86C187.672 48.62 187.899 48.4033 188.192 48.21C188.492 48.0167 188.872 47.92 189.332 47.92C189.826 47.92 190.256 48.0333 190.622 48.26C190.989 48.4867 191.272 48.7967 191.472 49.19C191.679 49.5833 191.782 50.03 191.782 50.53C191.782 51.03 191.679 51.4767 191.472 51.87C191.272 52.2567 190.986 52.5633 190.612 52.79C190.246 53.01 189.816 53.12 189.322 53.12ZM189.232 52.39C189.566 52.39 189.859 52.3133 190.112 52.16C190.366 52 190.566 51.78 190.712 51.5C190.859 51.22 190.932 50.8933 190.932 50.52C190.932 50.1467 190.859 49.82 190.712 49.54C190.566 49.26 190.366 49.0433 190.112 48.89C189.859 48.73 189.566 48.65 189.232 48.65C188.899 48.65 188.606 48.73 188.352 48.89C188.099 49.0433 187.899 49.26 187.752 49.54C187.606 49.82 187.532 50.1467 187.532 50.52C187.532 50.8933 187.606 51.22 187.752 51.5C187.899 51.78 188.099 52 188.352 52.16C188.606 52.3133 188.899 52.39 189.232 52.39ZM195.212 53.12C194.745 53.12 194.325 53.0133 193.952 52.8C193.578 52.5867 193.282 52.2867 193.062 51.9C192.848 51.5067 192.742 51.0467 192.742 50.52C192.742 49.9933 192.852 49.5367 193.072 49.15C193.292 48.7567 193.588 48.4533 193.962 48.24C194.342 48.0267 194.765 47.92 195.232 47.92C195.698 47.92 196.118 48.0267 196.492 48.24C196.865 48.4533 197.158 48.7567 197.372 49.15C197.592 49.5367 197.702 49.9933 197.702 50.52C197.702 51.0467 197.592 51.5067 197.372 51.9C197.152 52.2867 196.852 52.5867 196.472 52.8C196.098 53.0133 195.678 53.12 195.212 53.12ZM195.212 52.4C195.498 52.4 195.765 52.33 196.012 52.19C196.258 52.05 196.458 51.84 196.612 51.56C196.765 51.28 196.842 50.9333 196.842 50.52C196.842 50.1067 196.765 49.76 196.612 49.48C196.465 49.2 196.268 48.99 196.022 48.85C195.775 48.71 195.512 48.64 195.232 48.64C194.945 48.64 194.678 48.71 194.432 48.85C194.185 48.99 193.985 49.2 193.832 49.48C193.678 49.76 193.602 50.1067 193.602 50.52C193.602 50.9333 193.678 51.28 193.832 51.56C193.985 51.84 194.182 52.05 194.422 52.19C194.668 52.33 194.932 52.4 195.212 52.4ZM200.68 53.12C200.093 53.12 199.626 52.9433 199.28 52.59C198.933 52.23 198.76 51.68 198.76 50.94V48.04H199.6V50.85C199.6 51.8833 200.023 52.4 200.87 52.4C201.303 52.4 201.66 52.2467 201.94 51.94C202.226 51.6267 202.37 51.1833 202.37 50.61V48.04H203.21V53H202.45L202.39 52.11C202.236 52.4233 202.006 52.67 201.7 52.85C201.4 53.03 201.06 53.12 200.68 53.12ZM206.552 53C206.099 53 205.742 52.89 205.482 52.67C205.222 52.45 205.092 52.0533 205.092 51.48V48.75H204.232V48.04H205.092L205.202 46.85H205.932V48.04H207.392V48.75H205.932V51.48C205.932 51.7933 205.996 52.0067 206.122 52.12C206.249 52.2267 206.472 52.28 206.792 52.28H207.312V53H206.552ZM213.066 53C212.613 53 212.256 52.89 211.996 52.67C211.736 52.45 211.606 52.0533 211.606 51.48V48.75H210.746V48.04H211.606L211.716 46.85H212.446V48.04H213.906V48.75H212.446V51.48C212.446 51.7933 212.509 52.0067 212.636 52.12C212.763 52.2267 212.986 52.28 213.306 52.28H213.826V53H213.066ZM214.973 53V45.8H215.813V48.89C215.98 48.5833 216.217 48.3467 216.523 48.18C216.83 48.0067 217.163 47.92 217.523 47.92C218.097 47.92 218.557 48.1 218.903 48.46C219.25 48.8133 219.423 49.36 219.423 50.1V53H218.593V50.19C218.593 49.1567 218.177 48.64 217.343 48.64C216.91 48.64 216.547 48.7967 216.253 49.11C215.96 49.4167 215.813 49.8567 215.813 50.43V53H214.973ZM222.926 53.12C222.453 53.12 222.033 53.0133 221.666 52.8C221.299 52.58 221.009 52.2767 220.796 51.89C220.589 51.5033 220.486 51.0467 220.486 50.52C220.486 50 220.589 49.5467 220.796 49.16C221.003 48.7667 221.289 48.4633 221.656 48.25C222.029 48.03 222.459 47.92 222.946 47.92C223.426 47.92 223.839 48.03 224.186 48.25C224.539 48.4633 224.809 48.7467 224.996 49.1C225.183 49.4533 225.276 49.8333 225.276 50.24C225.276 50.3133 225.273 50.3867 225.266 50.46C225.266 50.5333 225.266 50.6167 225.266 50.71H221.316C221.336 51.09 221.423 51.4067 221.576 51.66C221.736 51.9067 221.933 52.0933 222.166 52.22C222.406 52.3467 222.659 52.41 222.926 52.41C223.273 52.41 223.563 52.33 223.796 52.17C224.029 52.01 224.199 51.7933 224.306 51.52H225.136C225.003 51.98 224.746 52.3633 224.366 52.67C223.993 52.97 223.513 53.12 222.926 53.12ZM222.926 48.63C222.526 48.63 222.169 48.7533 221.856 49C221.549 49.24 221.373 49.5933 221.326 50.06H224.446C224.426 49.6133 224.273 49.2633 223.986 49.01C223.699 48.7567 223.346 48.63 222.926 48.63ZM226.899 46.94C226.733 46.94 226.593 46.8867 226.479 46.78C226.373 46.6667 226.319 46.5267 226.319 46.36C226.319 46.2 226.373 46.0667 226.479 45.96C226.593 45.8533 226.733 45.8 226.899 45.8C227.059 45.8 227.196 45.8533 227.309 45.96C227.423 46.0667 227.479 46.2 227.479 46.36C227.479 46.5267 227.423 46.6667 227.309 46.78C227.196 46.8867 227.059 46.94 226.899 46.94ZM226.479 53V48.04H227.319V53H226.479ZM228.782 53V48.04H229.542L229.612 48.99C229.765 48.6633 229.998 48.4033 230.312 48.21C230.625 48.0167 231.012 47.92 231.472 47.92V48.8H231.242C230.948 48.8 230.678 48.8533 230.432 48.96C230.185 49.06 229.988 49.2333 229.842 49.48C229.695 49.7267 229.622 50.0667 229.622 50.5V53H228.782ZM235.611 46.94C235.451 46.94 235.314 46.8867 235.201 46.78C235.088 46.6667 235.031 46.5267 235.031 46.36C235.031 46.2 235.088 46.0667 235.201 45.96C235.314 45.8533 235.451 45.8 235.611 45.8C235.771 45.8 235.904 45.8533 236.011 45.96C236.124 46.0667 236.181 46.2 236.181 46.36C236.181 46.5267 236.124 46.6667 236.011 46.78C235.904 46.8867 235.771 46.94 235.611 46.94ZM234.091 55.2V54.48H234.481C234.728 54.48 234.904 54.4267 235.011 54.32C235.124 54.22 235.181 54.0467 235.181 53.8V48.04H236.021V53.82C236.021 54.3 235.901 54.65 235.661 54.87C235.421 55.09 235.071 55.2 234.611 55.2H234.091ZM239.743 53.12C239.276 53.12 238.856 53.0133 238.483 52.8C238.11 52.5867 237.813 52.2867 237.593 51.9C237.38 51.5067 237.273 51.0467 237.273 50.52C237.273 49.9933 237.383 49.5367 237.603 49.15C237.823 48.7567 238.12 48.4533 238.493 48.24C238.873 48.0267 239.296 47.92 239.763 47.92C240.23 47.92 240.65 48.0267 241.023 48.24C241.396 48.4533 241.69 48.7567 241.903 49.15C242.123 49.5367 242.233 49.9933 242.233 50.52C242.233 51.0467 242.123 51.5067 241.903 51.9C241.683 52.2867 241.383 52.5867 241.003 52.8C240.63 53.0133 240.21 53.12 239.743 53.12ZM239.743 52.4C240.03 52.4 240.296 52.33 240.543 52.19C240.79 52.05 240.99 51.84 241.143 51.56C241.296 51.28 241.373 50.9333 241.373 50.52C241.373 50.1067 241.296 49.76 241.143 49.48C240.996 49.2 240.8 48.99 240.553 48.85C240.306 48.71 240.043 48.64 239.763 48.64C239.476 48.64 239.21 48.71 238.963 48.85C238.716 48.99 238.516 49.2 238.363 49.48C238.21 49.76 238.133 50.1067 238.133 50.52C238.133 50.9333 238.21 51.28 238.363 51.56C238.516 51.84 238.713 52.05 238.953 52.19C239.2 52.33 239.463 52.4 239.743 52.4ZM245.211 53.12C244.624 53.12 244.158 52.9433 243.811 52.59C243.464 52.23 243.291 51.68 243.291 50.94V48.04H244.131V50.85C244.131 51.8833 244.554 52.4 245.401 52.4C245.834 52.4 246.191 52.2467 246.471 51.94C246.758 51.6267 246.901 51.1833 246.901 50.61V48.04H247.741V53H246.981L246.921 52.11C246.768 52.4233 246.538 52.67 246.231 52.85C245.931 53.03 245.591 53.12 245.211 53.12ZM249.124 53V48.04H249.884L249.954 48.99C250.107 48.6633 250.34 48.4033 250.654 48.21C250.967 48.0167 251.354 47.92 251.814 47.92V48.8H251.584C251.29 48.8 251.02 48.8533 250.774 48.96C250.527 49.06 250.33 49.2333 250.184 49.48C250.037 49.7267 249.964 50.0667 249.964 50.5V53H249.124ZM252.756 53V48.04H253.516L253.566 48.93C253.726 48.6167 253.956 48.37 254.256 48.19C254.556 48.01 254.896 47.92 255.276 47.92C255.863 47.92 256.33 48.1 256.676 48.46C257.03 48.8133 257.206 49.36 257.206 50.1V53H256.366V50.19C256.366 49.1567 255.94 48.64 255.086 48.64C254.66 48.64 254.303 48.7967 254.016 49.11C253.736 49.4167 253.596 49.8567 253.596 50.43V53H252.756ZM260.709 53.12C260.236 53.12 259.816 53.0133 259.449 52.8C259.082 52.58 258.792 52.2767 258.579 51.89C258.372 51.5033 258.269 51.0467 258.269 50.52C258.269 50 258.372 49.5467 258.579 49.16C258.786 48.7667 259.072 48.4633 259.439 48.25C259.812 48.03 260.242 47.92 260.729 47.92C261.209 47.92 261.622 48.03 261.969 48.25C262.322 48.4633 262.592 48.7467 262.779 49.1C262.966 49.4533 263.059 49.8333 263.059 50.24C263.059 50.3133 263.056 50.3867 263.049 50.46C263.049 50.5333 263.049 50.6167 263.049 50.71H259.099C259.119 51.09 259.206 51.4067 259.359 51.66C259.519 51.9067 259.716 52.0933 259.949 52.22C260.189 52.3467 260.442 52.41 260.709 52.41C261.056 52.41 261.346 52.33 261.579 52.17C261.812 52.01 261.982 51.7933 262.089 51.52H262.919C262.786 51.98 262.529 52.3633 262.149 52.67C261.776 52.97 261.296 53.12 260.709 53.12ZM260.709 48.63C260.309 48.63 259.952 48.7533 259.639 49C259.332 49.24 259.156 49.5933 259.109 50.06H262.229C262.209 49.6133 262.056 49.2633 261.769 49.01C261.482 48.7567 261.129 48.63 260.709 48.63ZM264.517 55.2L265.747 52.52H265.457L263.487 48.04H264.397L266.037 51.9L267.777 48.04H268.647L265.397 55.2H264.517ZM268.258 54.19L268.838 51.98H269.708L268.838 54.19H268.258ZM276.002 53.12C275.595 53.12 275.232 53.0367 274.912 52.87C274.599 52.7033 274.359 52.47 274.192 52.17L274.112 53H273.352V45.8H274.192V48.86C274.352 48.62 274.579 48.4033 274.872 48.21C275.172 48.0167 275.552 47.92 276.012 47.92C276.505 47.92 276.935 48.0333 277.302 48.26C277.669 48.4867 277.952 48.7967 278.152 49.19C278.359 49.5833 278.462 50.03 278.462 50.53C278.462 51.03 278.359 51.4767 278.152 51.87C277.952 52.2567 277.665 52.5633 277.292 52.79C276.925 53.01 276.495 53.12 276.002 53.12ZM275.912 52.39C276.245 52.39 276.539 52.3133 276.792 52.16C277.045 52 277.245 51.78 277.392 51.5C277.539 51.22 277.612 50.8933 277.612 50.52C277.612 50.1467 277.539 49.82 277.392 49.54C277.245 49.26 277.045 49.0433 276.792 48.89C276.539 48.73 276.245 48.65 275.912 48.65C275.579 48.65 275.285 48.73 275.032 48.89C274.779 49.0433 274.579 49.26 274.432 49.54C274.285 49.82 274.212 50.1467 274.212 50.52C274.212 50.8933 274.285 51.22 274.432 51.5C274.579 51.78 274.779 52 275.032 52.16C275.285 52.3133 275.579 52.39 275.912 52.39ZM281.441 53.12C280.855 53.12 280.388 52.9433 280.041 52.59C279.695 52.23 279.521 51.68 279.521 50.94V48.04H280.361V50.85C280.361 51.8833 280.785 52.4 281.631 52.4C282.065 52.4 282.421 52.2467 282.701 51.94C282.988 51.6267 283.131 51.1833 283.131 50.61V48.04H283.971V53H283.211L283.151 52.11C282.998 52.4233 282.768 52.67 282.461 52.85C282.161 53.03 281.821 53.12 281.441 53.12ZM285.864 46.94C285.697 46.94 285.557 46.8867 285.444 46.78C285.337 46.6667 285.284 46.5267 285.284 46.36C285.284 46.2 285.337 46.0667 285.444 45.96C285.557 45.8533 285.697 45.8 285.864 45.8C286.024 45.8 286.161 45.8533 286.274 45.96C286.387 46.0667 286.444 46.2 286.444 46.36C286.444 46.5267 286.387 46.6667 286.274 46.78C286.161 46.8867 286.024 46.94 285.864 46.94ZM285.444 53V48.04H286.284V53H285.444ZM287.747 53V45.8H288.587V53H287.747ZM292.213 53.12C291.72 53.12 291.287 53.0067 290.913 52.78C290.547 52.5533 290.26 52.2433 290.053 51.85C289.853 51.4567 289.753 51.01 289.753 50.51C289.753 50.01 289.857 49.5667 290.063 49.18C290.27 48.7867 290.557 48.48 290.923 48.26C291.29 48.0333 291.723 47.92 292.223 47.92C292.63 47.92 292.99 48.0033 293.303 48.17C293.617 48.3367 293.86 48.57 294.033 48.87V45.8H294.873V53H294.113L294.033 52.18C293.873 52.42 293.643 52.6367 293.343 52.83C293.043 53.0233 292.667 53.12 292.213 53.12ZM292.303 52.39C292.637 52.39 292.93 52.3133 293.183 52.16C293.443 52 293.643 51.78 293.783 51.5C293.93 51.22 294.003 50.8933 294.003 50.52C294.003 50.1467 293.93 49.82 293.783 49.54C293.643 49.26 293.443 49.0433 293.183 48.89C292.93 48.73 292.637 48.65 292.303 48.65C291.977 48.65 291.683 48.73 291.423 48.89C291.17 49.0433 290.97 49.26 290.823 49.54C290.683 49.82 290.613 50.1467 290.613 50.52C290.613 50.8933 290.683 51.22 290.823 51.5C290.97 51.78 291.17 52 291.423 52.16C291.683 52.3133 291.977 52.39 292.303 52.39ZM296.753 46.94C296.586 46.94 296.446 46.8867 296.333 46.78C296.226 46.6667 296.173 46.5267 296.173 46.36C296.173 46.2 296.226 46.0667 296.333 45.96C296.446 45.8533 296.586 45.8 296.753 45.8C296.913 45.8 297.049 45.8533 297.163 45.96C297.276 46.0667 297.333 46.2 297.333 46.36C297.333 46.5267 297.276 46.6667 297.163 46.78C297.049 46.8867 296.913 46.94 296.753 46.94ZM296.333 53V48.04H297.173V53H296.333ZM298.635 53V48.04H299.395L299.445 48.93C299.605 48.6167 299.835 48.37 300.135 48.19C300.435 48.01 300.775 47.92 301.155 47.92C301.742 47.92 302.209 48.1 302.555 48.46C302.909 48.8133 303.085 49.36 303.085 50.1V53H302.245V50.19C302.245 49.1567 301.819 48.64 300.965 48.64C300.539 48.64 300.182 48.7967 299.895 49.11C299.615 49.4167 299.475 49.8567 299.475 50.43V53H298.635ZM306.318 51.44C306.038 51.44 305.781 51.4033 305.548 51.33L305.048 51.8C305.121 51.8533 305.211 51.9 305.318 51.94C305.431 51.9733 305.591 52.0067 305.798 52.04C306.005 52.0667 306.295 52.0967 306.668 52.13C307.335 52.1767 307.811 52.33 308.098 52.59C308.385 52.85 308.528 53.19 308.528 53.61C308.528 53.8967 308.448 54.17 308.288 54.43C308.135 54.69 307.895 54.9033 307.568 55.07C307.248 55.2367 306.835 55.32 306.328 55.32C305.881 55.32 305.485 55.26 305.138 55.14C304.791 55.0267 304.521 54.85 304.328 54.61C304.135 54.3767 304.038 54.08 304.038 53.72C304.038 53.5333 304.088 53.33 304.188 53.11C304.288 52.8967 304.475 52.6933 304.748 52.5C304.601 52.44 304.475 52.3767 304.368 52.31C304.268 52.2367 304.175 52.1567 304.088 52.07V51.84L304.938 51C304.545 50.6667 304.348 50.2267 304.348 49.68C304.348 49.3533 304.425 49.0567 304.578 48.79C304.731 48.5233 304.955 48.3133 305.248 48.16C305.541 48 305.898 47.92 306.318 47.92C306.605 47.92 306.865 47.96 307.098 48.04H308.928V48.67L307.998 48.71C308.191 48.99 308.288 49.3133 308.288 49.68C308.288 50.0067 308.208 50.3033 308.048 50.57C307.895 50.8367 307.671 51.05 307.378 51.21C307.091 51.3633 306.738 51.44 306.318 51.44ZM306.318 50.75C306.671 50.75 306.951 50.66 307.158 50.48C307.371 50.2933 307.478 50.0267 307.478 49.68C307.478 49.34 307.371 49.08 307.158 48.9C306.951 48.7133 306.671 48.62 306.318 48.62C305.958 48.62 305.671 48.7133 305.458 48.9C305.251 49.08 305.148 49.34 305.148 49.68C305.148 50.0267 305.251 50.2933 305.458 50.48C305.671 50.66 305.958 50.75 306.318 50.75ZM304.858 53.64C304.858 53.9733 304.998 54.22 305.278 54.38C305.558 54.5467 305.908 54.63 306.328 54.63C306.741 54.63 307.071 54.54 307.318 54.36C307.571 54.18 307.698 53.94 307.698 53.64C307.698 53.4267 307.611 53.24 307.438 53.08C307.265 52.9267 306.945 52.8367 306.478 52.81C306.111 52.7833 305.795 52.75 305.528 52.71C305.255 52.8567 305.075 53.0133 304.988 53.18C304.901 53.3533 304.858 53.5067 304.858 53.64ZM314.172 53.12C313.759 53.12 313.415 53.05 313.142 52.91C312.869 52.77 312.665 52.5833 312.532 52.35C312.399 52.1167 312.332 51.8633 312.332 51.59C312.332 51.0833 312.525 50.6933 312.912 50.42C313.299 50.1467 313.825 50.01 314.492 50.01H315.832V49.95C315.832 49.5167 315.719 49.19 315.492 48.97C315.265 48.7433 314.962 48.63 314.582 48.63C314.255 48.63 313.972 48.7133 313.732 48.88C313.499 49.04 313.352 49.2767 313.292 49.59H312.432C312.465 49.23 312.585 48.9267 312.792 48.68C313.005 48.4333 313.269 48.2467 313.582 48.12C313.895 47.9867 314.229 47.92 314.582 47.92C315.275 47.92 315.795 48.1067 316.142 48.48C316.495 48.8467 316.672 49.3367 316.672 49.95V53H315.922L315.872 52.11C315.732 52.39 315.525 52.63 315.252 52.83C314.985 53.0233 314.625 53.12 314.172 53.12ZM314.302 52.41C314.622 52.41 314.895 52.3267 315.122 52.16C315.355 51.9933 315.532 51.7767 315.652 51.51C315.772 51.2433 315.832 50.9633 315.832 50.67V50.66H314.562C314.069 50.66 313.719 50.7467 313.512 50.92C313.312 51.0867 313.212 51.2967 313.212 51.55C313.212 51.81 313.305 52.02 313.492 52.18C313.685 52.3333 313.955 52.41 314.302 52.41ZM17.34 66.12C16.9333 66.12 16.57 66.0367 16.25 65.87C15.9367 65.7033 15.6967 65.47 15.53 65.17L15.45 66H14.69V58.8H15.53V61.86C15.69 61.62 15.9167 61.4033 16.21 61.21C16.51 61.0167 16.89 60.92 17.35 60.92C17.8433 60.92 18.2733 61.0333 18.64 61.26C19.0067 61.4867 19.29 61.7967 19.49 62.19C19.6967 62.5833 19.8 63.03 19.8 63.53C19.8 64.03 19.6967 64.4767 19.49 64.87C19.29 65.2567 19.0033 65.5633 18.63 65.79C18.2633 66.01 17.8333 66.12 17.34 66.12ZM17.25 65.39C17.5833 65.39 17.8767 65.3133 18.13 65.16C18.3833 65 18.5833 64.78 18.73 64.5C18.8767 64.22 18.95 63.8933 18.95 63.52C18.95 63.1467 18.8767 62.82 18.73 62.54C18.5833 62.26 18.3833 62.0433 18.13 61.89C17.8767 61.73 17.5833 61.65 17.25 61.65C16.9167 61.65 16.6233 61.73 16.37 61.89C16.1167 62.0433 15.9167 62.26 15.77 62.54C15.6233 62.82 15.55 63.1467 15.55 63.52C15.55 63.8933 15.6233 64.22 15.77 64.5C15.9167 64.78 16.1167 65 16.37 65.16C16.6233 65.3133 16.9167 65.39 17.25 65.39ZM22.7793 66.12C22.1926 66.12 21.726 65.9433 21.3793 65.59C21.0326 65.23 20.8593 64.68 20.8593 63.94V61.04H21.6993V63.85C21.6993 64.8833 22.1226 65.4 22.9693 65.4C23.4026 65.4 23.7593 65.2467 24.0393 64.94C24.326 64.6267 24.4693 64.1833 24.4693 63.61V61.04H25.3093V66H24.5493L24.4893 65.11C24.336 65.4233 24.106 65.67 23.7993 65.85C23.4993 66.03 23.1593 66.12 22.7793 66.12ZM28.592 66.12C27.9986 66.12 27.5053 65.97 27.112 65.67C26.7186 65.37 26.4886 64.9633 26.422 64.45H27.282C27.3353 64.71 27.472 64.9367 27.692 65.13C27.9186 65.3167 28.222 65.41 28.602 65.41C28.9553 65.41 29.2153 65.3367 29.382 65.19C29.5486 65.0367 29.632 64.8567 29.632 64.65C29.632 64.35 29.522 64.15 29.302 64.05C29.0886 63.95 28.7853 63.86 28.392 63.78C28.1253 63.7267 27.8586 63.65 27.592 63.55C27.3253 63.45 27.102 63.31 26.922 63.13C26.742 62.9433 26.652 62.7 26.652 62.4C26.652 61.9667 26.812 61.6133 27.132 61.34C27.4586 61.06 27.8986 60.92 28.452 60.92C28.9786 60.92 29.4086 61.0533 29.742 61.32C30.082 61.58 30.2786 61.9533 30.332 62.44H29.502C29.4686 62.1867 29.3586 61.99 29.172 61.85C28.992 61.7033 28.7486 61.63 28.442 61.63C28.142 61.63 27.9086 61.6933 27.742 61.82C27.582 61.9467 27.502 62.1133 27.502 62.32C27.502 62.52 27.6053 62.6767 27.812 62.79C28.0253 62.9033 28.312 63 28.672 63.08C28.9786 63.1467 29.2686 63.23 29.542 63.33C29.822 63.4233 30.0486 63.5667 30.222 63.76C30.402 63.9467 30.492 64.22 30.492 64.58C30.4986 65.0267 30.3286 65.3967 29.982 65.69C29.642 65.9767 29.1786 66.12 28.592 66.12ZM32.202 59.94C32.0353 59.94 31.8953 59.8867 31.782 59.78C31.6753 59.6667 31.622 59.5267 31.622 59.36C31.622 59.2 31.6753 59.0667 31.782 58.96C31.8953 58.8533 32.0353 58.8 32.202 58.8C32.362 58.8 32.4986 58.8533 32.612 58.96C32.7253 59.0667 32.782 59.2 32.782 59.36C32.782 59.5267 32.7253 59.6667 32.612 59.78C32.4986 59.8867 32.362 59.94 32.202 59.94ZM31.782 66V61.04H32.622V66H31.782ZM34.0845 66V61.04H34.8445L34.8945 61.93C35.0545 61.6167 35.2845 61.37 35.5845 61.19C35.8845 61.01 36.2245 60.92 36.6045 60.92C37.1912 60.92 37.6579 61.1 38.0045 61.46C38.3579 61.8133 38.5345 62.36 38.5345 63.1V66H37.6945V63.19C37.6945 62.1567 37.2679 61.64 36.4145 61.64C35.9879 61.64 35.6312 61.7967 35.3445 62.11C35.0645 62.4167 34.9245 62.8567 34.9245 63.43V66H34.0845ZM42.0372 66.12C41.5639 66.12 41.1439 66.0133 40.7772 65.8C40.4105 65.58 40.1205 65.2767 39.9072 64.89C39.7005 64.5033 39.5972 64.0467 39.5972 63.52C39.5972 63 39.7005 62.5467 39.9072 62.16C40.1139 61.7667 40.4005 61.4633 40.7672 61.25C41.1405 61.03 41.5705 60.92 42.0572 60.92C42.5372 60.92 42.9505 61.03 43.2972 61.25C43.6505 61.4633 43.9205 61.7467 44.1072 62.1C44.2939 62.4533 44.3872 62.8333 44.3872 63.24C44.3872 63.3133 44.3839 63.3867 44.3772 63.46C44.3772 63.5333 44.3772 63.6167 44.3772 63.71H40.4272C40.4472 64.09 40.5339 64.4067 40.6872 64.66C40.8472 64.9067 41.0439 65.0933 41.2772 65.22C41.5172 65.3467 41.7705 65.41 42.0372 65.41C42.3839 65.41 42.6739 65.33 42.9072 65.17C43.1405 65.01 43.3105 64.7933 43.4172 64.52H44.2472C44.1139 64.98 43.8572 65.3633 43.4772 65.67C43.1039 65.97 42.6239 66.12 42.0372 66.12ZM42.0372 61.63C41.6372 61.63 41.2805 61.7533 40.9672 62C40.6605 62.24 40.4839 62.5933 40.4372 63.06H43.5572C43.5372 62.6133 43.3839 62.2633 43.0972 62.01C42.8105 61.7567 42.4572 61.63 42.0372 61.63ZM47.4005 66.12C46.8072 66.12 46.3139 65.97 45.9205 65.67C45.5272 65.37 45.2972 64.9633 45.2305 64.45H46.0905C46.1439 64.71 46.2805 64.9367 46.5005 65.13C46.7272 65.3167 47.0305 65.41 47.4105 65.41C47.7639 65.41 48.0239 65.3367 48.1905 65.19C48.3572 65.0367 48.4405 64.8567 48.4405 64.65C48.4405 64.35 48.3305 64.15 48.1105 64.05C47.8972 63.95 47.5939 63.86 47.2005 63.78C46.9339 63.7267 46.6672 63.65 46.4005 63.55C46.1339 63.45 45.9105 63.31 45.7305 63.13C45.5505 62.9433 45.4605 62.7 45.4605 62.4C45.4605 61.9667 45.6205 61.6133 45.9405 61.34C46.2672 61.06 46.7072 60.92 47.2605 60.92C47.7872 60.92 48.2172 61.0533 48.5505 61.32C48.8905 61.58 49.0872 61.9533 49.1405 62.44H48.3105C48.2772 62.1867 48.1672 61.99 47.9805 61.85C47.8005 61.7033 47.5572 61.63 47.2505 61.63C46.9505 61.63 46.7172 61.6933 46.5505 61.82C46.3905 61.9467 46.3105 62.1133 46.3105 62.32C46.3105 62.52 46.4139 62.6767 46.6205 62.79C46.8339 62.9033 47.1205 63 47.4805 63.08C47.7872 63.1467 48.0772 63.23 48.3505 63.33C48.6305 63.4233 48.8572 63.5667 49.0305 63.76C49.2105 63.9467 49.3005 64.22 49.3005 64.58C49.3072 65.0267 49.1372 65.3967 48.7905 65.69C48.4505 65.9767 47.9872 66.12 47.4005 66.12ZM52.4005 66.12C51.8072 66.12 51.3139 65.97 50.9205 65.67C50.5272 65.37 50.2972 64.9633 50.2305 64.45H51.0905C51.1439 64.71 51.2805 64.9367 51.5005 65.13C51.7272 65.3167 52.0305 65.41 52.4105 65.41C52.7639 65.41 53.0239 65.3367 53.1905 65.19C53.3572 65.0367 53.4405 64.8567 53.4405 64.65C53.4405 64.35 53.3305 64.15 53.1105 64.05C52.8972 63.95 52.5939 63.86 52.2005 63.78C51.9339 63.7267 51.6672 63.65 51.4005 63.55C51.1339 63.45 50.9105 63.31 50.7305 63.13C50.5505 62.9433 50.4605 62.7 50.4605 62.4C50.4605 61.9667 50.6205 61.6133 50.9405 61.34C51.2672 61.06 51.7072 60.92 52.2605 60.92C52.7872 60.92 53.2172 61.0533 53.5505 61.32C53.8905 61.58 54.0872 61.9533 54.1405 62.44H53.3105C53.2772 62.1867 53.1672 61.99 52.9805 61.85C52.8005 61.7033 52.5572 61.63 52.2505 61.63C51.9505 61.63 51.7172 61.6933 51.5505 61.82C51.3905 61.9467 51.3105 62.1133 51.3105 62.32C51.3105 62.52 51.4139 62.6767 51.6205 62.79C51.8339 62.9033 52.1205 63 52.4805 63.08C52.7872 63.1467 53.0772 63.23 53.3505 63.33C53.6305 63.4233 53.8572 63.5667 54.0305 63.76C54.2105 63.9467 54.3005 64.22 54.3005 64.58C54.3072 65.0267 54.1372 65.3967 53.7905 65.69C53.4505 65.9767 52.9872 66.12 52.4005 66.12ZM59.797 66.12C59.3837 66.12 59.0404 66.05 58.767 65.91C58.4937 65.77 58.2904 65.5833 58.157 65.35C58.0237 65.1167 57.957 64.8633 57.957 64.59C57.957 64.0833 58.1504 63.6933 58.537 63.42C58.9237 63.1467 59.4504 63.01 60.117 63.01H61.457V62.95C61.457 62.5167 61.3437 62.19 61.117 61.97C60.8904 61.7433 60.587 61.63 60.207 61.63C59.8804 61.63 59.597 61.7133 59.357 61.88C59.1237 62.04 58.977 62.2767 58.917 62.59H58.057C58.0904 62.23 58.2104 61.9267 58.417 61.68C58.6304 61.4333 58.8937 61.2467 59.207 61.12C59.5204 60.9867 59.8537 60.92 60.207 60.92C60.9004 60.92 61.4204 61.1067 61.767 61.48C62.1204 61.8467 62.297 62.3367 62.297 62.95V66H61.547L61.497 65.11C61.357 65.39 61.1504 65.63 60.877 65.83C60.6104 66.0233 60.2504 66.12 59.797 66.12ZM59.927 65.41C60.247 65.41 60.5204 65.3267 60.747 65.16C60.9804 64.9933 61.157 64.7767 61.277 64.51C61.397 64.2433 61.457 63.9633 61.457 63.67V63.66H60.187C59.6937 63.66 59.3437 63.7467 59.137 63.92C58.937 64.0867 58.837 64.2967 58.837 64.55C58.837 64.81 58.9304 65.02 59.117 65.18C59.3104 65.3333 59.5804 65.41 59.927 65.41ZM63.5572 66V61.04H64.3172L64.3672 61.93C64.5272 61.6167 64.7572 61.37 65.0572 61.19C65.3572 61.01 65.6972 60.92 66.0772 60.92C66.6639 60.92 67.1305 61.1 67.4772 61.46C67.8305 61.8133 68.0072 62.36 68.0072 63.1V66H67.1672V63.19C67.1672 62.1567 66.7405 61.64 65.8872 61.64C65.4605 61.64 65.1039 61.7967 64.8172 62.11C64.5372 62.4167 64.3972 62.8567 64.3972 63.43V66H63.5572ZM71.5298 66.12C71.0365 66.12 70.6032 66.0067 70.2298 65.78C69.8632 65.5533 69.5765 65.2433 69.3698 64.85C69.1698 64.4567 69.0698 64.01 69.0698 63.51C69.0698 63.01 69.1732 62.5667 69.3798 62.18C69.5865 61.7867 69.8732 61.48 70.2398 61.26C70.6065 61.0333 71.0398 60.92 71.5398 60.92C71.9465 60.92 72.3065 61.0033 72.6198 61.17C72.9332 61.3367 73.1765 61.57 73.3498 61.87V58.8H74.1898V66H73.4298L73.3498 65.18C73.1898 65.42 72.9598 65.6367 72.6598 65.83C72.3598 66.0233 71.9832 66.12 71.5298 66.12ZM71.6198 65.39C71.9532 65.39 72.2465 65.3133 72.4998 65.16C72.7598 65 72.9598 64.78 73.0998 64.5C73.2465 64.22 73.3198 63.8933 73.3198 63.52C73.3198 63.1467 73.2465 62.82 73.0998 62.54C72.9598 62.26 72.7598 62.0433 72.4998 61.89C72.2465 61.73 71.9532 61.65 71.6198 61.65C71.2932 61.65 70.9998 61.73 70.7398 61.89C70.4865 62.0433 70.2865 62.26 70.1398 62.54C69.9998 62.82 69.9298 63.1467 69.9298 63.52C69.9298 63.8933 69.9998 64.22 70.1398 64.5C70.2865 64.78 70.4865 65 70.7398 65.16C70.9998 65.3133 71.2932 65.39 71.6198 65.39ZM78.2056 66V61.04H78.9656L79.0256 61.76C79.1856 61.4933 79.399 61.2867 79.6656 61.14C79.9323 60.9933 80.2323 60.92 80.5656 60.92C80.959 60.92 81.2956 61 81.5756 61.16C81.8623 61.32 82.0823 61.5633 82.2356 61.89C82.409 61.59 82.6456 61.3533 82.9456 61.18C83.2523 61.0067 83.5823 60.92 83.9356 60.92C84.529 60.92 85.0023 61.1 85.3556 61.46C85.709 61.8133 85.8856 62.36 85.8856 63.1V66H85.0556V63.19C85.0556 62.6767 84.9523 62.29 84.7456 62.03C84.539 61.77 84.2423 61.64 83.8556 61.64C83.4556 61.64 83.1223 61.7967 82.8556 62.11C82.5956 62.4167 82.4656 62.8567 82.4656 63.43V66H81.6256V63.19C81.6256 62.6767 81.5223 62.29 81.3156 62.03C81.109 61.77 80.8123 61.64 80.4256 61.64C80.0323 61.64 79.7023 61.7967 79.4356 62.11C79.1756 62.4167 79.0456 62.8567 79.0456 63.43V66H78.2056ZM88.8009 66.12C88.3876 66.12 88.0443 66.05 87.7709 65.91C87.4976 65.77 87.2943 65.5833 87.1609 65.35C87.0276 65.1167 86.9609 64.8633 86.9609 64.59C86.9609 64.0833 87.1543 63.6933 87.5409 63.42C87.9276 63.1467 88.4543 63.01 89.1209 63.01H90.4609V62.95C90.4609 62.5167 90.3476 62.19 90.1209 61.97C89.8943 61.7433 89.5909 61.63 89.2109 61.63C88.8843 61.63 88.6009 61.7133 88.3609 61.88C88.1276 62.04 87.9809 62.2767 87.9209 62.59H87.0609C87.0943 62.23 87.2143 61.9267 87.4209 61.68C87.6343 61.4333 87.8976 61.2467 88.2109 61.12C88.5243 60.9867 88.8576 60.92 89.2109 60.92C89.9043 60.92 90.4243 61.1067 90.7709 61.48C91.1243 61.8467 91.3009 62.3367 91.3009 62.95V66H90.5509L90.5009 65.11C90.3609 65.39 90.1543 65.63 89.8809 65.83C89.6143 66.0233 89.2543 66.12 88.8009 66.12ZM88.9309 65.41C89.2509 65.41 89.5243 65.3267 89.7509 65.16C89.9843 64.9933 90.1609 64.7767 90.2809 64.51C90.4009 64.2433 90.4609 63.9633 90.4609 63.67V63.66H89.1909C88.6976 63.66 88.3476 63.7467 88.1409 63.92C87.9409 64.0867 87.8409 64.2967 87.8409 64.55C87.8409 64.81 87.9343 65.02 88.1209 65.18C88.3143 65.3333 88.5843 65.41 88.9309 65.41ZM92.5611 66V61.04H93.3211L93.3711 61.93C93.5311 61.6167 93.7611 61.37 94.0611 61.19C94.3611 61.01 94.7011 60.92 95.0811 60.92C95.6678 60.92 96.1344 61.1 96.4811 61.46C96.8344 61.8133 97.0111 62.36 97.0111 63.1V66H96.1711V63.19C96.1711 62.1567 95.7444 61.64 94.8911 61.64C94.4644 61.64 94.1078 61.7967 93.8211 62.11C93.5411 62.4167 93.4011 62.8567 93.4011 63.43V66H92.5611ZM99.9338 66.12C99.5204 66.12 99.1771 66.05 98.9038 65.91C98.6304 65.77 98.4271 65.5833 98.2938 65.35C98.1604 65.1167 98.0938 64.8633 98.0938 64.59C98.0938 64.0833 98.2871 63.6933 98.6738 63.42C99.0604 63.1467 99.5871 63.01 100.254 63.01H101.594V62.95C101.594 62.5167 101.48 62.19 101.254 61.97C101.027 61.7433 100.724 61.63 100.344 61.63C100.017 61.63 99.7338 61.7133 99.4938 61.88C99.2604 62.04 99.1138 62.2767 99.0538 62.59H98.1938C98.2271 62.23 98.3471 61.9267 98.5538 61.68C98.7671 61.4333 99.0304 61.2467 99.3438 61.12C99.6571 60.9867 99.9904 60.92 100.344 60.92C101.037 60.92 101.557 61.1067 101.904 61.48C102.257 61.8467 102.434 62.3367 102.434 62.95V66H101.684L101.634 65.11C101.494 65.39 101.287 65.63 101.014 65.83C100.747 66.0233 100.387 66.12 99.9338 66.12ZM100.064 65.41C100.384 65.41 100.657 65.3267 100.884 65.16C101.117 64.9933 101.294 64.7767 101.414 64.51C101.534 64.2433 101.594 63.9633 101.594 63.67V63.66H100.324C99.8304 63.66 99.4804 63.7467 99.2738 63.92C99.0738 64.0867 98.9738 64.2967 98.9738 64.55C98.9738 64.81 99.0671 65.02 99.2538 65.18C99.4471 65.3333 99.7171 65.41 100.064 65.41ZM105.654 64.44C105.374 64.44 105.117 64.4033 104.884 64.33L104.384 64.8C104.457 64.8533 104.547 64.9 104.654 64.94C104.767 64.9733 104.927 65.0067 105.134 65.04C105.341 65.0667 105.631 65.0967 106.004 65.13C106.671 65.1767 107.147 65.33 107.434 65.59C107.721 65.85 107.864 66.19 107.864 66.61C107.864 66.8967 107.784 67.17 107.624 67.43C107.471 67.69 107.231 67.9033 106.904 68.07C106.584 68.2367 106.171 68.32 105.664 68.32C105.217 68.32 104.821 68.26 104.474 68.14C104.127 68.0267 103.857 67.85 103.664 67.61C103.471 67.3767 103.374 67.08 103.374 66.72C103.374 66.5333 103.424 66.33 103.524 66.11C103.624 65.8967 103.811 65.6933 104.084 65.5C103.937 65.44 103.811 65.3767 103.704 65.31C103.604 65.2367 103.511 65.1567 103.424 65.07V64.84L104.274 64C103.881 63.6667 103.684 63.2267 103.684 62.68C103.684 62.3533 103.761 62.0567 103.914 61.79C104.067 61.5233 104.291 61.3133 104.584 61.16C104.877 61 105.234 60.92 105.654 60.92C105.941 60.92 106.201 60.96 106.434 61.04H108.264V61.67L107.334 61.71C107.527 61.99 107.624 62.3133 107.624 62.68C107.624 63.0067 107.544 63.3033 107.384 63.57C107.231 63.8367 107.007 64.05 106.714 64.21C106.427 64.3633 106.074 64.44 105.654 64.44ZM105.654 63.75C106.007 63.75 106.287 63.66 106.494 63.48C106.707 63.2933 106.814 63.0267 106.814 62.68C106.814 62.34 106.707 62.08 106.494 61.9C106.287 61.7133 106.007 61.62 105.654 61.62C105.294 61.62 105.007 61.7133 104.794 61.9C104.587 62.08 104.484 62.34 104.484 62.68C104.484 63.0267 104.587 63.2933 104.794 63.48C105.007 63.66 105.294 63.75 105.654 63.75ZM104.194 66.64C104.194 66.9733 104.334 67.22 104.614 67.38C104.894 67.5467 105.244 67.63 105.664 67.63C106.077 67.63 106.407 67.54 106.654 67.36C106.907 67.18 107.034 66.94 107.034 66.64C107.034 66.4267 106.947 66.24 106.774 66.08C106.601 65.9267 106.281 65.8367 105.814 65.81C105.447 65.7833 105.131 65.75 104.864 65.71C104.591 65.8567 104.411 66.0133 104.324 66.18C104.237 66.3533 104.194 66.5067 104.194 66.64ZM109.721 59.94C109.555 59.94 109.415 59.8867 109.301 59.78C109.195 59.6667 109.141 59.5267 109.141 59.36C109.141 59.2 109.195 59.0667 109.301 58.96C109.415 58.8533 109.555 58.8 109.721 58.8C109.881 58.8 110.018 58.8533 110.131 58.96C110.245 59.0667 110.301 59.2 110.301 59.36C110.301 59.5267 110.245 59.6667 110.131 59.78C110.018 59.8867 109.881 59.94 109.721 59.94ZM109.301 66V61.04H110.141V66H109.301ZM111.604 66V61.04H112.364L112.414 61.93C112.574 61.6167 112.804 61.37 113.104 61.19C113.404 61.01 113.744 60.92 114.124 60.92C114.711 60.92 115.177 61.1 115.524 61.46C115.877 61.8133 116.054 62.36 116.054 63.1V66H115.214V63.19C115.214 62.1567 114.787 61.64 113.934 61.64C113.507 61.64 113.151 61.7967 112.864 62.11C112.584 62.4167 112.444 62.8567 112.444 63.43V66H111.604ZM119.287 64.44C119.007 64.44 118.75 64.4033 118.517 64.33L118.017 64.8C118.09 64.8533 118.18 64.9 118.287 64.94C118.4 64.9733 118.56 65.0067 118.767 65.04C118.973 65.0667 119.263 65.0967 119.637 65.13C120.303 65.1767 120.78 65.33 121.067 65.59C121.353 65.85 121.497 66.19 121.497 66.61C121.497 66.8967 121.417 67.17 121.257 67.43C121.103 67.69 120.863 67.9033 120.537 68.07C120.217 68.2367 119.803 68.32 119.297 68.32C118.85 68.32 118.453 68.26 118.107 68.14C117.76 68.0267 117.49 67.85 117.297 67.61C117.103 67.3767 117.007 67.08 117.007 66.72C117.007 66.5333 117.057 66.33 117.157 66.11C117.257 65.8967 117.443 65.6933 117.717 65.5C117.57 65.44 117.443 65.3767 117.337 65.31C117.237 65.2367 117.143 65.1567 117.057 65.07V64.84L117.907 64C117.513 63.6667 117.317 63.2267 117.317 62.68C117.317 62.3533 117.393 62.0567 117.547 61.79C117.7 61.5233 117.923 61.3133 118.217 61.16C118.51 61 118.867 60.92 119.287 60.92C119.573 60.92 119.833 60.96 120.067 61.04H121.897V61.67L120.967 61.71C121.16 61.99 121.257 62.3133 121.257 62.68C121.257 63.0067 121.177 63.3033 121.017 63.57C120.863 63.8367 120.64 64.05 120.347 64.21C120.06 64.3633 119.707 64.44 119.287 64.44ZM119.287 63.75C119.64 63.75 119.92 63.66 120.127 63.48C120.34 63.2933 120.447 63.0267 120.447 62.68C120.447 62.34 120.34 62.08 120.127 61.9C119.92 61.7133 119.64 61.62 119.287 61.62C118.927 61.62 118.64 61.7133 118.427 61.9C118.22 62.08 118.117 62.34 118.117 62.68C118.117 63.0267 118.22 63.2933 118.427 63.48C118.64 63.66 118.927 63.75 119.287 63.75ZM117.827 66.64C117.827 66.9733 117.967 67.22 118.247 67.38C118.527 67.5467 118.877 67.63 119.297 67.63C119.71 67.63 120.04 67.54 120.287 67.36C120.54 67.18 120.667 66.94 120.667 66.64C120.667 66.4267 120.58 66.24 120.407 66.08C120.233 65.9267 119.913 65.8367 119.447 65.81C119.08 65.7833 118.763 65.75 118.497 65.71C118.223 65.8567 118.043 66.0133 117.957 66.18C117.87 66.3533 117.827 66.5067 117.827 66.64ZM127.141 66.12C126.727 66.12 126.384 66.05 126.111 65.91C125.837 65.77 125.634 65.5833 125.501 65.35C125.367 65.1167 125.301 64.8633 125.301 64.59C125.301 64.0833 125.494 63.6933 125.881 63.42C126.267 63.1467 126.794 63.01 127.461 63.01H128.801V62.95C128.801 62.5167 128.687 62.19 128.461 61.97C128.234 61.7433 127.931 61.63 127.551 61.63C127.224 61.63 126.941 61.7133 126.701 61.88C126.467 62.04 126.321 62.2767 126.261 62.59H125.401C125.434 62.23 125.554 61.9267 125.761 61.68C125.974 61.4333 126.237 61.2467 126.551 61.12C126.864 60.9867 127.197 60.92 127.551 60.92C128.244 60.92 128.764 61.1067 129.111 61.48C129.464 61.8467 129.641 62.3367 129.641 62.95V66H128.891L128.841 65.11C128.701 65.39 128.494 65.63 128.221 65.83C127.954 66.0233 127.594 66.12 127.141 66.12ZM127.271 65.41C127.591 65.41 127.864 65.3267 128.091 65.16C128.324 64.9933 128.501 64.7767 128.621 64.51C128.741 64.2433 128.801 63.9633 128.801 63.67V63.66H127.531C127.037 63.66 126.687 63.7467 126.481 63.92C126.281 64.0867 126.181 64.2967 126.181 64.55C126.181 64.81 126.274 65.02 126.461 65.18C126.654 65.3333 126.924 65.41 127.271 65.41ZM134.547 66L133.097 61.04H133.937L134.987 64.93L136.147 61.04H137.097L138.267 64.93L139.307 61.04H140.157L138.707 66H137.847L136.627 61.91L135.407 66H134.547ZM143.161 66.12C142.694 66.12 142.274 66.0133 141.901 65.8C141.528 65.5867 141.231 65.2867 141.011 64.9C140.798 64.5067 140.691 64.0467 140.691 63.52C140.691 62.9933 140.801 62.5367 141.021 62.15C141.241 61.7567 141.538 61.4533 141.911 61.24C142.291 61.0267 142.714 60.92 143.181 60.92C143.648 60.92 144.068 61.0267 144.441 61.24C144.814 61.4533 145.108 61.7567 145.321 62.15C145.541 62.5367 145.651 62.9933 145.651 63.52C145.651 64.0467 145.541 64.5067 145.321 64.9C145.101 65.2867 144.801 65.5867 144.421 65.8C144.048 66.0133 143.628 66.12 143.161 66.12ZM143.161 65.4C143.448 65.4 143.714 65.33 143.961 65.19C144.208 65.05 144.408 64.84 144.561 64.56C144.714 64.28 144.791 63.9333 144.791 63.52C144.791 63.1067 144.714 62.76 144.561 62.48C144.414 62.2 144.218 61.99 143.971 61.85C143.724 61.71 143.461 61.64 143.181 61.64C142.894 61.64 142.628 61.71 142.381 61.85C142.134 61.99 141.934 62.2 141.781 62.48C141.628 62.76 141.551 63.1067 141.551 63.52C141.551 63.9333 141.628 64.28 141.781 64.56C141.934 64.84 142.131 65.05 142.371 65.19C142.618 65.33 142.881 65.4 143.161 65.4ZM146.819 66V61.04H147.579L147.649 61.99C147.802 61.6633 148.036 61.4033 148.349 61.21C148.662 61.0167 149.049 60.92 149.509 60.92V61.8H149.279C148.986 61.8 148.716 61.8533 148.469 61.96C148.222 62.06 148.026 62.2333 147.879 62.48C147.732 62.7267 147.659 63.0667 147.659 63.5V66H146.819ZM150.452 66V58.8H151.292V63.13L153.322 61.04H154.352L152.152 63.28L154.632 66H153.562L151.292 63.43V66H150.452ZM155.391 63.45V62.74H159.351V63.45H155.391ZM162.898 66.12C162.424 66.12 161.998 66.0133 161.618 65.8C161.244 65.58 160.948 65.2767 160.728 64.89C160.514 64.4967 160.408 64.04 160.408 63.52C160.408 63 160.514 62.5467 160.728 62.16C160.948 61.7667 161.244 61.4633 161.618 61.25C161.998 61.03 162.424 60.92 162.898 60.92C163.484 60.92 163.978 61.0733 164.378 61.38C164.784 61.6867 165.041 62.0967 165.148 62.61H164.288C164.221 62.3033 164.058 62.0667 163.798 61.9C163.538 61.7267 163.234 61.64 162.888 61.64C162.608 61.64 162.344 61.71 162.098 61.85C161.851 61.99 161.651 62.2 161.498 62.48C161.344 62.76 161.268 63.1067 161.268 63.52C161.268 63.9333 161.344 64.28 161.498 64.56C161.651 64.84 161.851 65.0533 162.098 65.2C162.344 65.34 162.608 65.41 162.888 65.41C163.234 65.41 163.538 65.3267 163.798 65.16C164.058 64.9867 164.221 64.7433 164.288 64.43H165.148C165.048 64.93 164.794 65.3367 164.388 65.65C163.981 65.9633 163.484 66.12 162.898 66.12ZM166.321 66V61.04H167.081L167.151 61.99C167.304 61.6633 167.538 61.4033 167.851 61.21C168.164 61.0167 168.551 60.92 169.011 60.92V61.8H168.781C168.488 61.8 168.218 61.8533 167.971 61.96C167.724 62.06 167.528 62.2333 167.381 62.48C167.234 62.7267 167.161 63.0667 167.161 63.5V66H166.321ZM171.998 66.12C171.525 66.12 171.105 66.0133 170.738 65.8C170.371 65.58 170.081 65.2767 169.868 64.89C169.661 64.5033 169.558 64.0467 169.558 63.52C169.558 63 169.661 62.5467 169.868 62.16C170.075 61.7667 170.361 61.4633 170.728 61.25C171.101 61.03 171.531 60.92 172.018 60.92C172.498 60.92 172.911 61.03 173.258 61.25C173.611 61.4633 173.881 61.7467 174.068 62.1C174.255 62.4533 174.348 62.8333 174.348 63.24C174.348 63.3133 174.345 63.3867 174.338 63.46C174.338 63.5333 174.338 63.6167 174.338 63.71H170.388C170.408 64.09 170.495 64.4067 170.648 64.66C170.808 64.9067 171.005 65.0933 171.238 65.22C171.478 65.3467 171.731 65.41 171.998 65.41C172.345 65.41 172.635 65.33 172.868 65.17C173.101 65.01 173.271 64.7933 173.378 64.52H174.208C174.075 64.98 173.818 65.3633 173.438 65.67C173.065 65.97 172.585 66.12 171.998 66.12ZM171.998 61.63C171.598 61.63 171.241 61.7533 170.928 62C170.621 62.24 170.445 62.5933 170.398 63.06H173.518C173.498 62.6133 173.345 62.2633 173.058 62.01C172.771 61.7567 172.418 61.63 171.998 61.63ZM177.111 66.12C176.698 66.12 176.355 66.05 176.081 65.91C175.808 65.77 175.605 65.5833 175.471 65.35C175.338 65.1167 175.271 64.8633 175.271 64.59C175.271 64.0833 175.465 63.6933 175.851 63.42C176.238 63.1467 176.765 63.01 177.431 63.01H178.771V62.95C178.771 62.5167 178.658 62.19 178.431 61.97C178.205 61.7433 177.901 61.63 177.521 61.63C177.195 61.63 176.911 61.7133 176.671 61.88C176.438 62.04 176.291 62.2767 176.231 62.59H175.371C175.405 62.23 175.525 61.9267 175.731 61.68C175.945 61.4333 176.208 61.2467 176.521 61.12C176.835 60.9867 177.168 60.92 177.521 60.92C178.215 60.92 178.735 61.1067 179.081 61.48C179.435 61.8467 179.611 62.3367 179.611 62.95V66H178.861L178.811 65.11C178.671 65.39 178.465 65.63 178.191 65.83C177.925 66.0233 177.565 66.12 177.111 66.12ZM177.241 65.41C177.561 65.41 177.835 65.3267 178.061 65.16C178.295 64.9933 178.471 64.7767 178.591 64.51C178.711 64.2433 178.771 63.9633 178.771 63.67V63.66H177.501C177.008 63.66 176.658 63.7467 176.451 63.92C176.251 64.0867 176.151 64.2967 176.151 64.55C176.151 64.81 176.245 65.02 176.431 65.18C176.625 65.3333 176.895 65.41 177.241 65.41ZM182.695 66C182.242 66 181.885 65.89 181.625 65.67C181.365 65.45 181.235 65.0533 181.235 64.48V61.75H180.375V61.04H181.235L181.345 59.85H182.075V61.04H183.535V61.75H182.075V64.48C182.075 64.7933 182.138 65.0067 182.265 65.12C182.392 65.2267 182.615 65.28 182.935 65.28H183.455V66H182.695ZM186.725 66.12C186.259 66.12 185.839 66.0133 185.465 65.8C185.092 65.5867 184.795 65.2867 184.575 64.9C184.362 64.5067 184.255 64.0467 184.255 63.52C184.255 62.9933 184.365 62.5367 184.585 62.15C184.805 61.7567 185.102 61.4533 185.475 61.24C185.855 61.0267 186.279 60.92 186.745 60.92C187.212 60.92 187.632 61.0267 188.005 61.24C188.379 61.4533 188.672 61.7567 188.885 62.15C189.105 62.5367 189.215 62.9933 189.215 63.52C189.215 64.0467 189.105 64.5067 188.885 64.9C188.665 65.2867 188.365 65.5867 187.985 65.8C187.612 66.0133 187.192 66.12 186.725 66.12ZM186.725 65.4C187.012 65.4 187.279 65.33 187.525 65.19C187.772 65.05 187.972 64.84 188.125 64.56C188.279 64.28 188.355 63.9333 188.355 63.52C188.355 63.1067 188.279 62.76 188.125 62.48C187.979 62.2 187.782 61.99 187.535 61.85C187.289 61.71 187.025 61.64 186.745 61.64C186.459 61.64 186.192 61.71 185.945 61.85C185.699 61.99 185.499 62.2 185.345 62.48C185.192 62.76 185.115 63.1067 185.115 63.52C185.115 63.9333 185.192 64.28 185.345 64.56C185.499 64.84 185.695 65.05 185.935 65.19C186.182 65.33 186.445 65.4 186.725 65.4ZM190.383 66V61.04H191.143L191.213 61.99C191.367 61.6633 191.6 61.4033 191.913 61.21C192.227 61.0167 192.613 60.92 193.073 60.92V61.8H192.843C192.55 61.8 192.28 61.8533 192.033 61.96C191.787 62.06 191.59 62.2333 191.443 62.48C191.297 62.7267 191.223 63.0667 191.223 63.5V66H190.383ZM193.916 63.45V62.74H197.876V63.45H193.916ZM199.143 66V58.8H199.983V66H199.143ZM201.87 59.94C201.703 59.94 201.563 59.8867 201.45 59.78C201.343 59.6667 201.29 59.5267 201.29 59.36C201.29 59.2 201.343 59.0667 201.45 58.96C201.563 58.8533 201.703 58.8 201.87 58.8C202.03 58.8 202.167 58.8533 202.28 58.96C202.393 59.0667 202.45 59.2 202.45 59.36C202.45 59.5267 202.393 59.6667 202.28 59.78C202.167 59.8867 202.03 59.94 201.87 59.94ZM201.45 66V61.04H202.29V66H201.45ZM204.023 66V61.75H203.273V61.04H204.023V60.18C204.023 59.7 204.143 59.35 204.382 59.13C204.623 58.91 204.973 58.8 205.433 58.8H205.933V59.52H205.562C205.309 59.52 205.129 59.5733 205.023 59.68C204.916 59.78 204.863 59.9533 204.863 60.2V61.04H206.083V61.75H204.863V66H204.023ZM209.117 66.12C208.644 66.12 208.224 66.0133 207.857 65.8C207.491 65.58 207.201 65.2767 206.987 64.89C206.781 64.5033 206.677 64.0467 206.677 63.52C206.677 63 206.781 62.5467 206.987 62.16C207.194 61.7667 207.481 61.4633 207.847 61.25C208.221 61.03 208.651 60.92 209.137 60.92C209.617 60.92 210.031 61.03 210.377 61.25C210.731 61.4633 211.001 61.7467 211.187 62.1C211.374 62.4533 211.467 62.8333 211.467 63.24C211.467 63.3133 211.464 63.3867 211.457 63.46C211.457 63.5333 211.457 63.6167 211.457 63.71H207.507C207.527 64.09 207.614 64.4067 207.767 64.66C207.927 64.9067 208.124 65.0933 208.357 65.22C208.597 65.3467 208.851 65.41 209.117 65.41C209.464 65.41 209.754 65.33 209.987 65.17C210.221 65.01 210.391 64.7933 210.497 64.52H211.327C211.194 64.98 210.937 65.3633 210.557 65.67C210.184 65.97 209.704 66.12 209.117 66.12ZM209.117 61.63C208.717 61.63 208.361 61.7533 208.047 62C207.741 62.24 207.564 62.5933 207.517 63.06H210.637C210.617 62.6133 210.464 62.2633 210.177 62.01C209.891 61.7567 209.537 61.63 209.117 61.63ZM217.877 66.12C217.47 66.12 217.107 66.0367 216.787 65.87C216.474 65.7033 216.234 65.47 216.067 65.17L215.987 66H215.227V58.8H216.067V61.86C216.227 61.62 216.454 61.4033 216.747 61.21C217.047 61.0167 217.427 60.92 217.887 60.92C218.38 60.92 218.81 61.0333 219.177 61.26C219.544 61.4867 219.827 61.7967 220.027 62.19C220.234 62.5833 220.337 63.03 220.337 63.53C220.337 64.03 220.234 64.4767 220.027 64.87C219.827 65.2567 219.54 65.5633 219.167 65.79C218.8 66.01 218.37 66.12 217.877 66.12ZM217.787 65.39C218.12 65.39 218.414 65.3133 218.667 65.16C218.92 65 219.12 64.78 219.267 64.5C219.414 64.22 219.487 63.8933 219.487 63.52C219.487 63.1467 219.414 62.82 219.267 62.54C219.12 62.26 218.92 62.0433 218.667 61.89C218.414 61.73 218.12 61.65 217.787 61.65C217.454 61.65 217.16 61.73 216.907 61.89C216.654 62.0433 216.454 62.26 216.307 62.54C216.16 62.82 216.087 63.1467 216.087 63.52C216.087 63.8933 216.16 64.22 216.307 64.5C216.454 64.78 216.654 65 216.907 65.16C217.16 65.3133 217.454 65.39 217.787 65.39ZM223.156 66.12C222.743 66.12 222.4 66.05 222.126 65.91C221.853 65.77 221.65 65.5833 221.516 65.35C221.383 65.1167 221.316 64.8633 221.316 64.59C221.316 64.0833 221.51 63.6933 221.896 63.42C222.283 63.1467 222.81 63.01 223.476 63.01H224.816V62.95C224.816 62.5167 224.703 62.19 224.476 61.97C224.25 61.7433 223.946 61.63 223.566 61.63C223.24 61.63 222.956 61.7133 222.716 61.88C222.483 62.04 222.336 62.2767 222.276 62.59H221.416C221.45 62.23 221.57 61.9267 221.776 61.68C221.99 61.4333 222.253 61.2467 222.566 61.12C222.88 60.9867 223.213 60.92 223.566 60.92C224.26 60.92 224.78 61.1067 225.126 61.48C225.48 61.8467 225.656 62.3367 225.656 62.95V66H224.906L224.856 65.11C224.716 65.39 224.51 65.63 224.236 65.83C223.97 66.0233 223.61 66.12 223.156 66.12ZM223.286 65.41C223.606 65.41 223.88 65.3267 224.106 65.16C224.34 64.9933 224.516 64.7767 224.636 64.51C224.756 64.2433 224.816 63.9633 224.816 63.67V63.66H223.546C223.053 63.66 222.703 63.7467 222.496 63.92C222.296 64.0867 222.196 64.2967 222.196 64.55C222.196 64.81 222.29 65.02 222.476 65.18C222.67 65.3333 222.94 65.41 223.286 65.41ZM226.917 66V58.8H227.757V66H226.917ZM230.783 66.12C230.37 66.12 230.027 66.05 229.753 65.91C229.48 65.77 229.277 65.5833 229.143 65.35C229.01 65.1167 228.943 64.8633 228.943 64.59C228.943 64.0833 229.137 63.6933 229.523 63.42C229.91 63.1467 230.437 63.01 231.103 63.01H232.443V62.95C232.443 62.5167 232.33 62.19 232.103 61.97C231.877 61.7433 231.573 61.63 231.193 61.63C230.867 61.63 230.583 61.7133 230.343 61.88C230.11 62.04 229.963 62.2767 229.903 62.59H229.043C229.077 62.23 229.197 61.9267 229.403 61.68C229.617 61.4333 229.88 61.2467 230.193 61.12C230.507 60.9867 230.84 60.92 231.193 60.92C231.887 60.92 232.407 61.1067 232.753 61.48C233.107 61.8467 233.283 62.3367 233.283 62.95V66H232.533L232.483 65.11C232.343 65.39 232.137 65.63 231.863 65.83C231.597 66.0233 231.237 66.12 230.783 66.12ZM230.913 65.41C231.233 65.41 231.507 65.3267 231.733 65.16C231.967 64.9933 232.143 64.7767 232.263 64.51C232.383 64.2433 232.443 63.9633 232.443 63.67V63.66H231.173C230.68 63.66 230.33 63.7467 230.123 63.92C229.923 64.0867 229.823 64.2967 229.823 64.55C229.823 64.81 229.917 65.02 230.103 65.18C230.297 65.3333 230.567 65.41 230.913 65.41ZM234.544 66V61.04H235.304L235.354 61.93C235.514 61.6167 235.744 61.37 236.044 61.19C236.344 61.01 236.684 60.92 237.064 60.92C237.65 60.92 238.117 61.1 238.464 61.46C238.817 61.8133 238.994 62.36 238.994 63.1V66H238.154V63.19C238.154 62.1567 237.727 61.64 236.874 61.64C236.447 61.64 236.09 61.7967 235.804 62.11C235.524 62.4167 235.384 62.8567 235.384 63.43V66H234.544ZM242.546 66.12C242.073 66.12 241.646 66.0133 241.266 65.8C240.893 65.58 240.596 65.2767 240.376 64.89C240.163 64.4967 240.056 64.04 240.056 63.52C240.056 63 240.163 62.5467 240.376 62.16C240.596 61.7667 240.893 61.4633 241.266 61.25C241.646 61.03 242.073 60.92 242.546 60.92C243.133 60.92 243.626 61.0733 244.026 61.38C244.433 61.6867 244.69 62.0967 244.796 62.61H243.936C243.87 62.3033 243.706 62.0667 243.446 61.9C243.186 61.7267 242.883 61.64 242.536 61.64C242.256 61.64 241.993 61.71 241.746 61.85C241.5 61.99 241.3 62.2 241.146 62.48C240.993 62.76 240.916 63.1067 240.916 63.52C240.916 63.9333 240.993 64.28 241.146 64.56C241.3 64.84 241.5 65.0533 241.746 65.2C241.993 65.34 242.256 65.41 242.536 65.41C242.883 65.41 243.186 65.3267 243.446 65.16C243.706 64.9867 243.87 64.7433 243.936 64.43H244.796C244.696 64.93 244.443 65.3367 244.036 65.65C243.63 65.9633 243.133 66.12 242.546 66.12ZM248.199 66.12C247.726 66.12 247.306 66.0133 246.939 65.8C246.573 65.58 246.283 65.2767 246.069 64.89C245.863 64.5033 245.759 64.0467 245.759 63.52C245.759 63 245.863 62.5467 246.069 62.16C246.276 61.7667 246.563 61.4633 246.929 61.25C247.303 61.03 247.733 60.92 248.219 60.92C248.699 60.92 249.113 61.03 249.459 61.25C249.813 61.4633 250.083 61.7467 250.269 62.1C250.456 62.4533 250.549 62.8333 250.549 63.24C250.549 63.3133 250.546 63.3867 250.539 63.46C250.539 63.5333 250.539 63.6167 250.539 63.71H246.589C246.609 64.09 246.696 64.4067 246.849 64.66C247.009 64.9067 247.206 65.0933 247.439 65.22C247.679 65.3467 247.933 65.41 248.199 65.41C248.546 65.41 248.836 65.33 249.069 65.17C249.303 65.01 249.473 64.7933 249.579 64.52H250.409C250.276 64.98 250.019 65.3633 249.639 65.67C249.266 65.97 248.786 66.12 248.199 66.12ZM248.199 61.63C247.799 61.63 247.443 61.7533 247.129 62C246.823 62.24 246.646 62.5933 246.599 63.06H249.719C249.699 62.6133 249.546 62.2633 249.259 62.01C248.973 61.7567 248.619 61.63 248.199 61.63ZM251.953 66.05C251.786 66.05 251.646 65.9967 251.533 65.89C251.426 65.7767 251.373 65.64 251.373 65.48C251.373 65.32 251.426 65.1867 251.533 65.08C251.646 64.9667 251.786 64.91 251.953 64.91C252.113 64.91 252.246 64.9667 252.353 65.08C252.466 65.1867 252.523 65.32 252.523 65.48C252.523 65.64 252.466 65.7767 252.353 65.89C252.246 65.9967 252.113 66.05 251.953 66.05Z" fill="#908E8E"/>
<path d="M27.744 84.008L26.208 78.4H26.928L28.136 83.208L29.512 78.4H30.256L31.592 83.208L32.816 78.4H33.536L31.968 84H31.2L29.864 79.376L28.496 84L27.744 84.008ZM35.6641 84.096C35.2855 84.096 34.9495 84.0107 34.6561 83.84C34.3628 83.664 34.1308 83.4213 33.9601 83.112C33.7948 82.8027 33.7121 82.4373 33.7121 82.016C33.7121 81.6 33.7948 81.2373 33.9601 80.928C34.1255 80.6133 34.3548 80.3707 34.6481 80.2C34.9468 80.024 35.2908 79.936 35.6801 79.936C36.0641 79.936 36.3948 80.024 36.6721 80.2C36.9548 80.3707 37.1708 80.5973 37.3201 80.88C37.4695 81.1627 37.5441 81.4667 37.5441 81.792C37.5441 81.8507 37.5415 81.9093 37.5361 81.968C37.5361 82.0267 37.5361 82.0933 37.5361 82.168H34.3761C34.3921 82.472 34.4615 82.7253 34.5841 82.928C34.7121 83.1253 34.8695 83.2747 35.0561 83.376C35.2481 83.4773 35.4508 83.528 35.6641 83.528C35.9415 83.528 36.1735 83.464 36.3601 83.336C36.5468 83.208 36.6828 83.0347 36.7681 82.816H37.4321C37.3255 83.184 37.1201 83.4907 36.8161 83.736C36.5175 83.976 36.1335 84.096 35.6641 84.096ZM35.6641 80.504C35.3441 80.504 35.0588 80.6027 34.8081 80.8C34.5628 80.992 34.4215 81.2747 34.3841 81.648H36.8801C36.8641 81.2907 36.7415 81.0107 36.5121 80.808C36.2828 80.6053 36.0001 80.504 35.6641 80.504ZM40.2188 84.096C39.8401 84.096 39.5041 84.0107 39.2108 83.84C38.9175 83.664 38.6855 83.4213 38.5148 83.112C38.3495 82.8027 38.2668 82.4373 38.2668 82.016C38.2668 81.6 38.3495 81.2373 38.5148 80.928C38.6801 80.6133 38.9095 80.3707 39.2028 80.2C39.5015 80.024 39.8455 79.936 40.2348 79.936C40.6188 79.936 40.9495 80.024 41.2268 80.2C41.5095 80.3707 41.7255 80.5973 41.8748 80.88C42.0241 81.1627 42.0988 81.4667 42.0988 81.792C42.0988 81.8507 42.0961 81.9093 42.0908 81.968C42.0908 82.0267 42.0908 82.0933 42.0908 82.168H38.9308C38.9468 82.472 39.0161 82.7253 39.1388 82.928C39.2668 83.1253 39.4241 83.2747 39.6108 83.376C39.8028 83.4773 40.0055 83.528 40.2188 83.528C40.4961 83.528 40.7281 83.464 40.9148 83.336C41.1015 83.208 41.2375 83.0347 41.3228 82.816H41.9868C41.8801 83.184 41.6748 83.4907 41.3708 83.736C41.0721 83.976 40.6881 84.096 40.2188 84.096ZM40.2188 80.504C39.8988 80.504 39.6135 80.6027 39.3628 80.8C39.1175 80.992 38.9761 81.2747 38.9388 81.648H41.4348C41.4188 81.2907 41.2961 81.0107 41.0668 80.808C40.8375 80.6053 40.5548 80.504 40.2188 80.504ZM42.9895 84V78.24H43.6615V81.704L45.2855 80.032H46.1095L44.3495 81.824L46.3335 84H45.4775L43.6615 81.944V84H42.9895ZM47.0208 84V78.24H47.6928V84H47.0208ZM49.2262 85.76L50.2102 83.616H49.9782L48.4022 80.032H49.1302L50.4422 83.12L51.8342 80.032H52.5302L49.9302 85.76H49.2262Z" fill="#878784"/>
<defs>
<filter id="filter0_d_533_38" x="0" y="0" width="364" height="105" filterUnits="userSpaceOnUse" color-interpolation-filters="sRGB">
<feFlood flood-opacity="0" result="BackgroundImageFix"/>
<feColorMatrix in="SourceAlpha" type="matrix" values="0 0 0 0 0 0 0 0 0 0 0 0 0 0 0 0 0 0 127 0" result="hardAlpha"/>
<feOffset dx="2" dy="2"/>
<feColorMatrix type="matrix" values="0 0 0 0 0.105882 0 0 0 0 0.109804 0 0 0 0 0.113725 0 0 0 1 0"/>
<feBlend mode="normal" in2="BackgroundImageFix" result="effect1_dropShadow_533_38"/>
<feBlend mode="normal" in="SourceGraphic" in2="effect1_dropShadow_533_38" result="shape"/>
</filter>
</defs>
</svg>
